<?xml version="1.0" encoding="UTF-8" standalone="no"?><svg xmlns="http://www.w3.org/2000/svg" xmlns:xlink="http://www.w3.org/1999/xlink" contentScriptType="application/ecmascript" contentStyleType="text/css" height="503px" preserveAspectRatio="none" style="width:917px;height:503px;" version="1.1" viewBox="0 0 917 503" width="917px" zoomAndPan="magnify"><defs><filter height="300%" id="fh25fhk" width="300%" x="-1" y="-1"><feGaussianBlur result="blurOut" stdDeviation="2.0"/><feColorMatrix in="blurOut" result="blurOut2" type="matrix" values="0 0 0 0 0 0 0 0 0 0 0 0 0 0 0 0 0 0 .4 0"/><feOffset dx="4.0" dy="4.0" in="blurOut2" result="blurOut3"/><feBlend in="SourceGraphic" in2="blurOut3" mode="normal"/></filter></defs><g><ellipse cx="500" cy="18" fill="#000000" filter="url(#fh25fhk)" rx="10" ry="10" style="stroke: none; stroke-width: 1.0;"/><rect fill="#FEFECE" filter="url(#fh25fhk)" height="50" rx="12.5" ry="12.5" style="stroke: #A80036; stroke-width: 1.5;" width="76" x="462" y="90.5"/><line style="stroke: #A80036; stroke-width: 1.5;" x1="462" x2="538" y1="116.7969" y2="116.7969"/><text fill="#000000" font-family="sans-serif" font-size="14" lengthAdjust="spacingAndGlyphs" textLength="56" x="472" y="108.4951">Opened</text><rect fill="#FEFECE" filter="url(#fh25fhk)" height="50" rx="12.5" ry="12.5" style="stroke: #A80036; stroke-width: 1.5;" width="91" x="454.5" y="203"/><line style="stroke: #A80036; stroke-width: 1.5;" x1="454.5" x2="545.5" y1="229.2969" y2="229.2969"/><text fill="#000000" font-family="sans-serif" font-size="14" lengthAdjust="spacingAndGlyphs" textLength="71" x="464.5" y="220.9951">Submitted</text><rect fill="#FEFECE" filter="url(#fh25fhk)" height="50" rx="12.5" ry="12.5" style="stroke: #A80036; stroke-width: 1.5;" width="93" x="503.5" y="323.5"/><line style="stroke: #A80036; stroke-width: 1.5;" x1="503.5" x2="596.5" y1="349.7969" y2="349.7969"/><text fill="#000000" font-family="sans-serif" font-size="14" lengthAdjust="spacingAndGlyphs" textLength="73" x="513.5" y="341.4951">Reopened</text><rect fill="#FEFECE" filter="url(#fh25fhk)" height="50" rx="12.5" ry="12.5" style="stroke: #A80036; stroke-width: 1.5;" width="77" x="319.5" y="323.5"/><line style="stroke: #A80036; stroke-width: 1.5;" x1="319.5" x2="396.5" y1="349.7969" y2="349.7969"/><text fill="#000000" font-family="sans-serif" font-size="14" lengthAdjust="spacingAndGlyphs" textLength="57" x="329.5" y="341.4951">Pending</text><rect fill="#FEFECE" filter="url(#fh25fhk)" height="50" rx="12.5" ry="12.5" style="stroke: #A80036; stroke-width: 1.5;" width="68" x="324" y="444"/><line style="stroke: #A80036; stroke-width: 1.5;" x1="324" x2="392" y1="470.2969" y2="470.2969"/><text fill="#000000" font-family="sans-serif" font-size="14" lengthAdjust="spacingAndGlyphs" textLength="48" x="334" y="461.9951">Closed</text><polygon fill="#FBFB77" filter="url(#fh25fhk)" points="573.5,88,573.5,143.3984,782.5,143.3984,782.5,98,772.5,88,573.5,88" style="stroke: #A80036; stroke-width: 1.0;"/><polygon fill="#FBFB77" points="573.5,88,573.5,111.5,538.242,115.5,573.5,119.5,573.5,143.3984,782.5,143.3984,782.5,98,772.5,88,573.5,88" style="stroke: #A80036; stroke-width: 1.0;"/><line style="stroke: #A80036; stroke-width: 1.0;" x1="772.5" x2="772.5" y1="88" y2="98"/><line style="stroke: #A80036; stroke-width: 1.0;" x1="782.5" x2="772.5" y1="98" y2="98"/><text fill="#000000" font-family="sans-serif" font-size="13" lengthAdjust="spacingAndGlyphs" textLength="76" x="579.5" y="105.0669">Nová taška,</text><text fill="#000000" font-family="sans-serif" font-size="13" lengthAdjust="spacingAndGlyphs" textLength="159" x="579.5" y="120.1997">ešte nebola registrovaná</text><text fill="#000000" font-family="sans-serif" font-size="13" lengthAdjust="spacingAndGlyphs" textLength="188" x="579.5" y="135.3325">a na tejto stránke ju neuvidíš.</text><polygon fill="#FBFB77" filter="url(#fh25fhk)" points="581,208,581,248.2656,829,248.2656,829,218,819,208,581,208" style="stroke: #A80036; stroke-width: 1.0;"/><polygon fill="#FBFB77" points="581,208,581,224,545.645,228,581,232,581,248.2656,829,248.2656,829,218,819,208,581,208" style="stroke: #A80036; stroke-width: 1.0;"/><line style="stroke: #A80036; stroke-width: 1.0;" x1="819" x2="819" y1="208" y2="218"/><line style="stroke: #A80036; stroke-width: 1.0;" x1="829" x2="819" y1="218" y2="218"/><text fill="#000000" font-family="sans-serif" font-size="13" lengthAdjust="spacingAndGlyphs" textLength="122" x="587" y="225.0669">Registrovaná taška</text><text fill="#000000" font-family="sans-serif" font-size="13" lengthAdjust="spacingAndGlyphs" textLength="223" x="591" y="240.1997">(človek zadá svoje údaje a odošle).</text><polygon fill="#FBFB77" filter="url(#fh25fhk)" points="6,313,6,383.5313,284,383.5313,284,323,274,313,6,313" style="stroke: #A80036; stroke-width: 1.0;"/><polygon fill="#FBFB77" points="6,313,6,383.5313,284,383.5313,284,352.5,319.457,348.5,284,344.5,284,323,274,313,6,313" style="stroke: #A80036; stroke-width: 1.0;"/><line style="stroke: #A80036; stroke-width: 1.0;" x1="274" x2="274" y1="313" y2="323"/><line style="stroke: #A80036; stroke-width: 1.0;" x1="284" x2="274" y1="323" y2="323"/><text fill="#000000" font-family="sans-serif" font-size="13" lengthAdjust="spacingAndGlyphs" textLength="122" x="12" y="330.0669">Taška sa spracúva.</text><text fill="#000000" font-family="sans-serif" font-size="13" lengthAdjust="spacingAndGlyphs" textLength="253" x="12" y="345.1997">Toto spracovanie ešte nie je dokončené</text><text fill="#000000" font-family="sans-serif" font-size="13" lengthAdjust="spacingAndGlyphs" textLength="252" x="12" y="360.3325">(napríklad ideš podľa zoznamu eventov</text><text fill="#000000" font-family="sans-serif" font-size="13" lengthAdjust="spacingAndGlyphs" textLength="143" x="12" y="375.4653">a ešte nie si na konci).</text><polygon fill="#FBFB77" filter="url(#fh25fhk)" points="427.5,449,427.5,489.2656,650.5,489.2656,650.5,459,640.5,449,427.5,449" style="stroke: #A80036; stroke-width: 1.0;"/><polygon fill="#FBFB77" points="427.5,449,427.5,465,392.291,469,427.5,473,427.5,489.2656,650.5,489.2656,650.5,459,640.5,449,427.5,449" style="stroke: #A80036; stroke-width: 1.0;"/><line style="stroke: #A80036; stroke-width: 1.0;" x1="640.5" x2="640.5" y1="449" y2="459"/><line style="stroke: #A80036; stroke-width: 1.0;" x1="650.5" x2="640.5" y1="459" y2="459"/><text fill="#000000" font-family="sans-serif" font-size="13" lengthAdjust="spacingAndGlyphs" textLength="198" x="433.5" y="466.0669">Spracovanie tašky je ukončené</text><text fill="#000000" font-family="sans-serif" font-size="13" lengthAdjust="spacingAndGlyphs" textLength="123" x="433.5" y="481.1997">a je jasný výsledok.</text><polygon fill="#FBFB77" filter="url(#fh25fhk)" points="631.5,321,631.5,376.3984,908.5,376.3984,908.5,331,898.5,321,631.5,321" style="stroke: #A80036; stroke-width: 1.0;"/><polygon fill="#FBFB77" points="631.5,321,631.5,344.5,596.836,348.5,631.5,352.5,631.5,376.3984,908.5,376.3984,908.5,331,898.5,321,631.5,321" style="stroke: #A80036; stroke-width: 1.0;"/><line style="stroke: #A80036; stroke-width: 1.0;" x1="898.5" x2="898.5" y1="321" y2="331"/><line style="stroke: #A80036; stroke-width: 1.0;" x1="908.5" x2="898.5" y1="331" y2="331"/><text fill="#000000" font-family="sans-serif" font-size="13" lengthAdjust="spacingAndGlyphs" textLength="186" x="637.5" y="338.0669">Taška už raz bola Submitted,</text><text fill="#000000" font-family="sans-serif" font-size="13" lengthAdjust="spacingAndGlyphs" textLength="194" x="637.5" y="353.1997">ale môžeš ju otvoriť na úpravu</text><text fill="#000000" font-family="sans-serif" font-size="13" lengthAdjust="spacingAndGlyphs" textLength="256" x="637.5" y="368.3325">(napríklad doplnenie údajov a podobne).</text><path d="M500,28.157 C500,41.13 500,65.453 500,84.986 " fill="none" style="stroke: #A80036; stroke-width: 1.0;"/><polygon fill="#A80036" points="500,90.355,504,81.355,500,85.355,496,81.355,500,90.355" style="stroke: #A80036; stroke-width: 1.0;"/><path d="M500,140.75 C500,157.446 500,179.727 500,197.461 " fill="none" style="stroke: #A80036; stroke-width: 1.0;"/><polygon fill="#A80036" points="500,202.807,504,193.807,500,197.807,496,193.807,500,202.807" style="stroke: #A80036; stroke-width: 1.0;"/><path d="M499.716,253.266 C504.975,272.277 515.963,298.775 526.803,318.832 " fill="none" style="stroke: #A80036; stroke-width: 1.0;"/><polygon fill="#A80036" points="529.257,323.266,528.3992,313.4546,526.8361,318.8912,521.3995,317.3281,529.257,323.266" style="stroke: #A80036; stroke-width: 1.0;"/><path d="M550.911,323.266 C545.821,304.263 534.848,277.766 523.869,257.702 " fill="none" style="stroke: #A80036; stroke-width: 1.0;"/><polygon fill="#A80036" points="521.38,253.266,522.2944,263.0723,523.8261,257.6268,529.2717,259.1585,521.38,253.266" style="stroke: #A80036; stroke-width: 1.0;"/><path d="M470.922,253.266 C447.757,272.597 415.317,299.668 391.148,319.838 " fill="none" style="stroke: #A80036; stroke-width: 1.0;"/><polygon fill="#A80036" points="387.04,323.266,396.5125,320.5693,390.8784,320.0618,391.3858,314.4278,387.04,323.266" style="stroke: #A80036; stroke-width: 1.0;"/><path d="M487.337,253.245 C471.068,284.051 441.624,338.668 414,384 C402.579,402.7428 388.931,423.2487 377.969,439.308 " fill="none" style="stroke: #A80036; stroke-width: 1.0;"/><polygon fill="#A80036" points="374.952,443.7145,383.3368,438.5478,377.7766,439.5888,376.7357,434.0285,374.952,443.7145" style="stroke: #A80036; stroke-width: 1.0;"/><path d="M347.477,373.766 C344.75,392.538 344.527,418.6086 346.81,438.5706 " fill="none" style="stroke: #A80036; stroke-width: 1.0;"/><polygon fill="#A80036" points="347.482,443.7663,350.2943,434.3275,346.8406,438.8076,342.3605,435.3538,347.482,443.7663" style="stroke: #A80036; stroke-width: 1.0;"/><path d="M369.137,443.7663 C372.028,425.003 372.266,398.933 369.852,378.964 " fill="none" style="stroke: #A80036; stroke-width: 1.0;"/><polygon fill="#A80036" points="369.142,373.766,366.3976,383.2248,369.8191,378.7199,374.3239,382.1414,369.142,373.766" style="stroke: #A80036; stroke-width: 1.0;"/></g></svg>