<?xml version="1.0" encoding="UTF-8" standalone="no"?>
<!-- Created with Inkscape (http://www.inkscape.org/) -->

<svg
   xmlns:dc="http://purl.org/dc/elements/1.1/"
   xmlns:cc="http://creativecommons.org/ns#"
   xmlns:rdf="http://www.w3.org/1999/02/22-rdf-syntax-ns#"
   xmlns:svg="http://www.w3.org/2000/svg"
   xmlns="http://www.w3.org/2000/svg"
   xmlns:sodipodi="http://sodipodi.sourceforge.net/DTD/sodipodi-0.dtd"
   xmlns:inkscape="http://www.inkscape.org/namespaces/inkscape"
   id="svg2"
   version="1.1"
   inkscape:version="0.91 r13725"
   width="1074.6704"
   height="225.23564"
   xml:space="preserve"
   sodipodi:docname="inex_text_logo3.svg"><metadata
     id="metadata8"><rdf:RDF><cc:Work
         rdf:about=""><dc:format>image/svg+xml</dc:format><dc:type
           rdf:resource="http://purl.org/dc/dcmitype/StillImage" /><dc:title /></cc:Work></rdf:RDF></metadata><defs
     id="defs6" /><sodipodi:namedview
     pagecolor="#ffffff"
     bordercolor="#666666"
     borderopacity="1"
     objecttolerance="10"
     gridtolerance="10"
     guidetolerance="10"
     inkscape:pageopacity="0"
     inkscape:pageshadow="2"
     inkscape:window-width="1920"
     inkscape:window-height="983"
     id="namedview4"
     showgrid="false"
     fit-margin-top="0"
     fit-margin-left="0"
     fit-margin-right="0"
     fit-margin-bottom="0"
     inkscape:zoom="0.86130182"
     inkscape:cx="735.54912"
     inkscape:cy="85.213271"
     inkscape:window-x="1366"
     inkscape:window-y="27"
     inkscape:window-maximized="1"
     inkscape:current-layer="text2984" /><g
     id="g10"
     inkscape:groupmode="layer"
     inkscape:label="block_file_26_logo-inex"
     transform="matrix(1.25,0,0,-1.25,62.370437,300.50139)"><g
       transform="scale(1.0376607,-0.96370615)"
       style="font-style:normal;font-weight:normal;font-size:66.93510437px;line-height:125%;font-family:Sans;letter-spacing:0px;word-spacing:0px;fill:#000000;fill-opacity:1;stroke:none"
       id="text2984"><path
         d="m -10.609082,-120.07609 q 2.7780683,3.20295 4.3141766,7.94201 1.5361084,4.73906 1.5361084,10.81812 0,5.915654 -1.5034252,10.687395 -1.5034252,4.771741 -4.3468598,8.007373 -2.974167,3.399049 -6.961512,5.033206 -3.954662,1.601475 -8.726403,1.601475 -4.935157,0 -8.889819,-1.666841 -3.954662,-1.666841 -6.798096,-4.96784 -2.810752,-3.235632 -4.314177,-7.97469 -1.503425,-4.739058 -1.503425,-10.720078 0,-6.14443 1.503425,-10.78544 1.536109,-4.64101 4.34686,-7.97469 2.810751,-3.23563 6.765413,-4.90247 3.987345,-1.69953 8.889819,-1.69953 4.96784,0 8.955185,1.73221 3.987345,1.73221 6.73273,4.86979 z m -0.882445,18.76013 q 0,-4.8371 -1.045861,-8.56298 -1.045861,-3.72588 -2.941484,-6.17712 -1.928307,-2.5166 -4.673692,-3.75856 -2.712702,-1.27465 -6.11175,-1.27465 -3.529781,0 -6.177117,1.24196 -2.614652,1.20928 -4.641008,3.79125 -1.928306,2.48392 -2.974167,6.24248 -1.013178,3.75857 -1.013178,8.49762 0,9.576168 4.020028,14.67474 4.020029,5.065889 10.785442,5.065889 6.765413,0 10.752759,-5.065889 4.020028,-5.098572 4.020028,-14.67474 z"
         style="font-style:normal;font-variant:normal;font-weight:normal;font-stretch:normal;font-size:139.44815063px;line-height:125%;font-family:Amazon;-inkscape-font-specification:Amazon;text-align:justify;letter-spacing:0.51123619px;writing-mode:lr-tb;text-anchor:start"
         id="path3467" /><path
         d="m 26.894102,-95.367623 q 0,-6.536627 -1.993673,-9.902997 -1.993672,-3.39905 -6.405898,-3.39905 -2.516603,0 -5.098573,1.1766 -2.549286,1.17659 -4.6410079,2.97416 l 0,20.917224 q 2.3205039,1.14391 4.1180779,1.634157 1.797573,0.457565 3.954662,0.457565 4.706374,0 7.386393,-3.333682 2.680019,-3.333682 2.680019,-10.523977 z m 6.340532,-0.490247 q 0,8.955185 -4.34686,14.413272 -4.346859,5.458087 -10.883491,5.458087 -2.974167,0 -5.098572,-0.751713 -2.091722,-0.719029 -4.1507609,-1.960989 l -0.3921978,1.699524 -5.7522356,0 0,-50.854991 6.1444334,0 0,18.17183 q 2.3205039,-2.09172 5.0332059,-3.46441 2.712702,-1.37269 6.144434,-1.37269 6.177116,0 9.73958,4.96784 3.562464,4.93515 3.562464,13.69424 z"
         style="font-style:normal;font-variant:normal;font-weight:normal;font-stretch:normal;font-size:66.93510437px;line-height:125%;font-family:Tahoma;-inkscape-font-specification:Tahoma;text-align:justify;letter-spacing:0.80000001px;writing-mode:lr-tb;text-anchor:start"
         id="path3469" /><path
         d="m 50.376216,-75.953828 q 0,6.242483 -3.366365,9.510799 -3.333682,3.268315 -9.21665,3.268315 -1.013178,0 -2.255138,-0.09805 -1.274643,-0.09805 -2.516603,-0.294149 l 0,-5.49077 0.359515,0 q 0.719029,0.163416 1.601474,0.294149 0.849762,0.163415 1.634158,0.163415 2.451237,0 4.020028,-0.62098 1.601475,-0.588296 2.385871,-1.895623 0.719029,-1.176593 0.947811,-2.974167 0.261466,-1.797574 0.261466,-4.379543 l 0,-29.937769 -6.601998,0 0,-5.09857 12.746431,0 0,37.552942 z m 0.03268,-43.664692 -6.994195,0 0,-6.37322 6.994195,0 0,6.37322 z"
         style="font-style:normal;font-variant:normal;font-weight:normal;font-stretch:normal;font-size:66.93510437px;line-height:125%;font-family:Tahoma;-inkscape-font-specification:Tahoma;text-align:justify;letter-spacing:0.80000001px;writing-mode:lr-tb;text-anchor:start"
         id="path3471" /><path
         d="m 80.427639,-85.987557 0,-10.131778 q -2.189772,0.196099 -5.556137,0.555613 -3.333682,0.326832 -5.392721,0.947812 -2.451236,0.751712 -4.052711,2.320504 -1.601475,1.536108 -1.601475,4.314177 0,3.137583 1.764891,4.739057 1.76489,1.601475 5.163939,1.601475 2.9088,0 5.261988,-1.24196 2.353187,-1.274643 4.412226,-3.1049 z m 0,5.098573 q -0.751713,0.555613 -2.026356,1.568791 -1.24196,0.980495 -2.418553,1.568792 -1.634158,0.849762 -3.170267,1.307326 -1.503425,0.457564 -4.24881,0.457564 -2.255138,0 -4.281493,-0.849762 -2.026356,-0.849762 -3.562464,-2.38587 -1.470743,-1.503426 -2.353188,-3.693197 -0.882445,-2.222455 -0.882445,-4.673692 0,-3.791246 1.601475,-6.438581 1.601474,-2.680019 5.065889,-4.248811 3.072217,-1.405375 7.255661,-1.928306 4.183444,-0.55561 9.020551,-0.81708 l 0,-1.17659 q 0,-2.15709 -0.653663,-3.46442 -0.653663,-1.34001 -1.830257,-2.05904 -1.176594,-0.75171 -2.876118,-0.98049 -1.699524,-0.26147 -3.497098,-0.26147 -2.124405,0 -5.000522,0.65367 -2.876118,0.62098 -5.752236,1.83025 l -0.359515,0 0,-6.24248 q 1.699524,-0.49025 4.869791,-1.07854 3.170266,-0.5883 6.275166,-0.5883 3.758563,0 6.340532,0.5883 2.581969,0.58829 4.641008,2.1244 1.993673,1.50343 2.974167,3.8893 0.980495,2.38587 0.980495,5.8176 l 0,24.969931 -6.11175,0 0,-3.889295 z"
         style="font-style:normal;font-variant:normal;font-weight:normal;font-stretch:normal;font-size:66.93510437px;line-height:125%;font-family:Tahoma;-inkscape-font-specification:Tahoma;text-align:justify;letter-spacing:0.80000001px;writing-mode:lr-tb;text-anchor:start"
         id="path3473" /><path
         d="m 124.36941,-113.50677 -13.75961,36.507081 -5.52345,0 -13.66156,-36.507081 6.634681,0 10.001049,28.172876 9.90299,-28.172876 6.4059,0 z"
         style="font-style:normal;font-variant:normal;font-weight:normal;font-stretch:normal;font-size:66.93510437px;line-height:125%;font-family:Tahoma;-inkscape-font-specification:Tahoma;text-align:justify;letter-spacing:0.80000001px;writing-mode:lr-tb;text-anchor:start"
         id="path3475" /><path
         d="m 161.46332,-76.117244 q -3.66052,0 -6.86347,-0.980494 -3.17026,-0.980495 -5.26198,-2.091722 l 0,-6.896146 0.32683,0 q 0.78439,0.62098 1.83025,1.372692 1.07855,0.751713 2.84344,1.568792 1.56879,0.719029 3.43173,1.274643 1.89562,0.555614 3.92198,0.555614 1.47074,0 3.13758,-0.326832 1.66684,-0.359515 2.48392,-0.882445 1.14391,-0.751713 1.63416,-1.601475 0.52293,-0.849762 0.52293,-2.549286 0,-2.189772 -1.20928,-3.300999 -1.17659,-1.111227 -4.21612,-1.86294 -1.1766,-0.294148 -3.07222,-0.686346 -1.89562,-0.392198 -3.4971,-0.849762 -4.18344,-1.209277 -6.07907,-3.72588 -1.89562,-2.549286 -1.89562,-6.14443 0,-4.93516 3.72588,-8.04006 3.72588,-3.1049 9.903,-3.1049 3.03953,0 6.11175,0.75171 3.07221,0.75172 5.16394,1.89563 l 0,6.56931 -0.32683,0 q -2.35319,-1.86294 -5.26199,-2.94148 -2.87612,-1.07855 -5.8176,-1.07855 -3.03954,0 -5.13126,1.27465 -2.09172,1.27464 -2.09172,3.85661 0,2.28782 1.24196,3.43173 1.24196,1.111226 3.98734,1.830256 1.3727,0.359515 3.03954,0.719029 1.69952,0.326832 3.56246,0.784396 4.05271,1.013178 6.07907,3.366365 2.05904,2.353187 2.05904,6.405899 0,2.353187 -0.94782,4.477592 -0.91512,2.091722 -2.7127,3.595147 -1.96099,1.634158 -4.44491,2.48392 -2.45123,0.849762 -6.17711,0.849762 z"
         style="font-style:normal;font-variant:normal;font-weight:normal;font-stretch:normal;font-size:66.93510437px;line-height:125%;font-family:Tahoma;-inkscape-font-specification:Tahoma;text-align:justify;letter-spacing:0.80000001px;writing-mode:lr-tb;text-anchor:start"
         id="path3477" /><path
         d="m 211.02658,-113.50677 -13.75961,36.507081 -5.52346,0 -13.66155,-36.507081 6.63468,0 10.00104,28.172876 9.903,-28.172876 6.4059,0 z"
         style="font-style:normal;font-variant:normal;font-weight:normal;font-stretch:normal;font-size:66.93510437px;line-height:125%;font-family:Tahoma;-inkscape-font-specification:Tahoma;text-align:justify;letter-spacing:0.80000001px;writing-mode:lr-tb;text-anchor:start"
         id="path3479" /><path
         d="m 231.79599,-76.149927 q -8.7264,0 -13.56351,-4.902473 -4.80443,-4.935157 -4.80443,-13.988391 0,-8.922499 4.6737,-14.184489 4.67369,-5.29467 12.2235,-5.29467 3.39904,0 6.0137,0.98049 2.61465,0.9805 4.57564,3.07222 1.96099,2.09172 3.00685,5.13125 1.04586,3.00685 1.04586,7.386398 l 0,3.333682 -25.29676,0 q 0,6.373215 3.20295,9.73958 3.20295,3.366366 8.85713,3.366366 2.02636,0 3.95466,-0.457565 1.96099,-0.457564 3.52978,-1.176593 1.66685,-0.751713 2.81076,-1.438059 1.14391,-0.71903 1.89562,-1.34001 l 0.35951,0 0,6.700048 q -1.07854,0.424881 -2.68001,1.078544 -1.60148,0.62098 -2.87612,0.980494 -1.79758,0.490248 -3.26832,0.751713 -1.43806,0.261465 -3.66051,0.261465 z m 7.19029,-23.172358 q -0.0654,-2.483915 -0.58829,-4.281495 -0.52293,-1.79757 -1.50343,-3.03953 -1.07854,-1.37269 -2.77807,-2.09172 -1.66684,-0.71903 -4.15076,-0.71903 -2.45124,0 -4.18344,0.75171 -1.69953,0.71903 -3.1049,2.1244 -1.37269,1.43806 -2.09172,3.20295 -0.71903,1.73221 -0.91513,4.052715 l 19.31574,0 z"
         style="font-style:normal;font-variant:normal;font-weight:normal;font-stretch:normal;font-size:66.93510437px;line-height:125%;font-family:Tahoma;-inkscape-font-specification:Tahoma;text-align:justify;letter-spacing:0.80000001px;writing-mode:lr-tb;text-anchor:start"
         id="path3481" /><path
         d="m 263.08937,-76.280659 q -5.0332,0 -7.84395,-2.843435 -2.81076,-2.876118 -2.81076,-9.053234 l 0,-20.230872 -4.15076,0 0,-5.09857 4.15076,0 0,-10.4913 6.14444,0 0,10.4913 11.30837,0 0,5.09857 -11.30837,0 0,17.354754 q 0,2.778068 0.0981,4.281493 0.0981,1.503426 0.75171,2.810752 0.55561,1.14391 1.79757,1.732207 1.24196,0.555614 3.36637,0.555614 1.50342,0 2.9088,-0.424881 1.40538,-0.457564 2.02636,-0.751713 l 0.35951,0 0,5.523454 q -1.73221,0.490247 -3.52978,0.751712 -1.76489,0.294149 -3.26832,0.294149 z"
         style="font-style:normal;font-variant:normal;font-weight:normal;font-stretch:normal;font-size:66.93510437px;line-height:125%;font-family:Tahoma;-inkscape-font-specification:Tahoma;text-align:justify;letter-spacing:0.80000001px;writing-mode:lr-tb;text-anchor:start"
         id="path3483" /><path
         d="m 317.30925,-85.987557 0,-10.131778 q -2.18977,0.196099 -5.55613,0.555613 -3.33369,0.326832 -5.39272,0.947812 -2.45124,0.751712 -4.05272,2.320504 -1.60147,1.536108 -1.60147,4.314177 0,3.137583 1.76489,4.739057 1.76489,1.601475 5.16394,1.601475 2.9088,0 5.26199,-1.24196 2.35318,-1.274643 4.41222,-3.1049 z m 0,5.098573 q -0.75171,0.555613 -2.02635,1.568791 -1.24196,0.980495 -2.41856,1.568792 -1.63415,0.849762 -3.17026,1.307326 -1.50343,0.457564 -4.24881,0.457564 -2.25514,0 -4.2815,-0.849762 -2.02635,-0.849762 -3.56246,-2.38587 -1.47074,-1.503426 -2.35319,-3.693197 -0.88244,-2.222455 -0.88244,-4.673692 0,-3.791246 1.60147,-6.438581 1.60148,-2.680019 5.06589,-4.248811 3.07222,-1.405375 7.25566,-1.928306 4.18345,-0.55561 9.02055,-0.81708 l 0,-1.17659 q 0,-2.15709 -0.65366,-3.46442 -0.65366,-1.34001 -1.83026,-2.05904 -1.17659,-0.75171 -2.87611,-0.98049 -1.69953,-0.26147 -3.4971,-0.26147 -2.12441,0 -5.00052,0.65367 -2.87612,0.62098 -5.75224,1.83025 l -0.35952,0 0,-6.24248 q 1.69953,-0.49025 4.8698,-1.07854 3.17026,-0.5883 6.27516,-0.5883 3.75856,0 6.34053,0.5883 2.58197,0.58829 4.64101,2.1244 1.99367,1.50343 2.97417,3.8893 0.98049,2.38587 0.98049,5.8176 l 0,24.969931 -6.11175,0 0,-3.889295 z"
         style="font-style:normal;font-variant:normal;font-weight:normal;font-stretch:normal;font-size:66.93510437px;line-height:125%;font-family:Tahoma;-inkscape-font-specification:Tahoma;text-align:justify;letter-spacing:0.80000001px;writing-mode:lr-tb;text-anchor:start"
         id="path3485" /><path
         d="m 363.14664,-76.999689 -8.07274,0 -13.62888,-17.616221 -2.41855,2.353187 0,15.263034 -6.14443,0 0,-50.854991 6.14443,0 0,29.774355 14.44595,-15.426445 7.64786,0 -15.00157,15.263029 17.02793,21.244052 z"
         style="font-style:normal;font-variant:normal;font-weight:normal;font-stretch:normal;font-size:66.93510437px;line-height:125%;font-family:Tahoma;-inkscape-font-specification:Tahoma;text-align:justify;letter-spacing:0.80000001px;writing-mode:lr-tb;text-anchor:start"
         id="path3487" /><path
         d="m 396.53175,-95.23689 q 0,9.21665 -4.44491,14.249856 -4.44491,5.000523 -11.8313,5.000523 -7.61518,0 -11.99472,-5.163939 -4.34686,-5.196622 -4.34686,-14.08644 0,-9.15128 4.47759,-14.21717 4.51028,-5.06589 11.86399,-5.06589 7.38639,0 11.8313,5.06589 4.44491,5.0332 4.44491,14.21717 z m -6.34053,0 q 0,-7.09225 -2.58197,-10.52398 -2.58197,-3.46441 -7.35371,-3.46441 -4.80443,0 -7.41908,3.46441 -2.58197,3.43173 -2.58197,10.52398 0,6.863463 2.58197,10.425927 2.61465,3.529781 7.41908,3.529781 4.73905,0 7.32102,-3.464415 2.61466,-3.497098 2.61466,-10.491293 z"
         style="font-style:normal;font-variant:normal;font-weight:normal;font-stretch:normal;font-size:66.93510437px;line-height:125%;font-family:Tahoma;-inkscape-font-specification:Tahoma;text-align:justify;letter-spacing:0.80000001px;writing-mode:lr-tb;text-anchor:start"
         id="path3489" /><path
         d="m 453.46434,-76.999689 -6.14443,0 0,-3.72588 q -1.43806,1.209277 -2.48392,1.993673 -1.04586,0.784396 -2.45124,1.438059 -1.30732,0.62098 -2.7127,0.947811 -1.40538,0.359515 -3.26832,0.359515 -2.97416,0 -5.52345,-1.24196 -2.5166,-1.24196 -4.28149,-3.62783 -1.79758,-2.418554 -2.77807,-5.948335 -0.9805,-3.562464 -0.9805,-8.170789 0,-4.804424 1.24196,-8.301525 1.24196,-3.52978 3.43174,-6.14443 1.99367,-2.38587 4.80442,-3.72588 2.84343,-1.37269 5.94833,-1.37269 2.74539,0 4.77175,0.62098 2.02635,0.58829 4.28149,1.86294 l 0,-15.81865 6.14443,0 0,50.854991 z m -6.14443,-8.889818 0,-21.047953 q -2.28782,-1.11123 -4.11808,-1.53611 -1.79757,-0.42488 -3.92198,-0.42488 -4.73906,0 -7.41907,3.56246 -2.68002,3.52979 -2.68002,10.229832 0,6.438582 2.05904,9.870314 2.05903,3.399048 6.60199,3.399048 2.41856,0 4.86979,-1.078544 2.45124,-1.111227 4.60833,-2.974167 z"
         style="font-style:normal;font-variant:normal;font-weight:normal;font-stretch:normal;font-size:66.93510437px;line-height:125%;font-family:Tahoma;-inkscape-font-specification:Tahoma;text-align:justify;letter-spacing:0.80000001px;writing-mode:lr-tb;text-anchor:start"
         id="path3491" /><path
         d="m 493.18998,-95.23689 q 0,9.21665 -4.44491,14.249856 -4.44491,5.000523 -11.8313,5.000523 -7.61518,0 -11.99472,-5.163939 -4.34686,-5.196622 -4.34686,-14.08644 0,-9.15128 4.47759,-14.21717 4.51028,-5.06589 11.86399,-5.06589 7.38639,0 11.8313,5.06589 4.44491,5.0332 4.44491,14.21717 z m -6.34053,0 q 0,-7.09225 -2.58197,-10.52398 -2.58197,-3.46441 -7.35371,-3.46441 -4.80442,0 -7.41908,3.46441 -2.58197,3.43173 -2.58197,10.52398 0,6.863463 2.58197,10.425927 2.61466,3.529781 7.41908,3.529781 4.73906,0 7.32103,-3.464415 2.61465,-3.497098 2.61465,-10.491293 z"
         style="font-style:normal;font-variant:normal;font-weight:normal;font-stretch:normal;font-size:66.93510437px;line-height:125%;font-family:Tahoma;-inkscape-font-specification:Tahoma;text-align:justify;letter-spacing:0.80000001px;writing-mode:lr-tb;text-anchor:start"
         id="path3493" /><path
         d="m 524.58139,-95.367623 q 0,-6.536627 -1.99367,-9.902997 -1.99367,-3.39905 -6.4059,-3.39905 -2.5166,0 -5.09857,1.1766 -2.54929,1.17659 -4.64101,2.97416 l 0,20.917224 q 2.3205,1.14391 4.11808,1.634157 1.79757,0.457565 3.95466,0.457565 4.70637,0 7.38639,-3.333682 2.68002,-3.333682 2.68002,-10.523977 z m 6.34053,-0.490247 q 0,8.955185 -4.34686,14.413272 -4.34686,5.458087 -10.88349,5.458087 -2.97416,0 -5.09857,-0.751713 -2.09172,-0.719029 -4.15076,-1.960989 l -0.3922,1.699524 -5.75223,0 0,-50.854991 6.14443,0 0,18.17183 q 2.3205,-2.09172 5.03321,-3.46441 2.7127,-1.37269 6.14443,-1.37269 6.17712,0 9.73958,4.96784 3.56246,4.93515 3.56246,13.69424 z"
         style="font-style:normal;font-variant:normal;font-weight:normal;font-stretch:normal;font-size:66.93510437px;line-height:125%;font-family:Tahoma;-inkscape-font-specification:Tahoma;text-align:justify;letter-spacing:0.80000001px;writing-mode:lr-tb;text-anchor:start"
         id="path3495" /><path
         d="m 557.4436,-106.90478 -0.32683,0 q -0.68635,-0.1961 -1.47074,-0.22878 -0.75172,-0.0654 -1.83026,-0.0654 -2.48392,0 -4.93516,1.07855 -2.45123,1.07854 -4.64101,3.20295 l 0,25.917741 -6.14443,0 0,-36.507081 6.14443,0 0,5.4254 q 3.36637,-2.97417 5.85029,-4.18344 2.5166,-1.24196 4.86979,-1.24196 0.94781,0 1.40537,0.0654 0.49025,0.0327 1.07855,0.13073 l 0,6.4059 z"
         style="font-style:normal;font-variant:normal;font-weight:normal;font-stretch:normal;font-size:66.93510437px;line-height:125%;font-family:Tahoma;-inkscape-font-specification:Tahoma;text-align:justify;letter-spacing:0.80000001px;writing-mode:lr-tb;text-anchor:start"
         id="path3497" /><path
         d="m 592.85505,-95.23689 q 0,9.21665 -4.44491,14.249856 -4.44491,5.000523 -11.8313,5.000523 -7.61518,0 -11.99472,-5.163939 -4.34686,-5.196622 -4.34686,-14.08644 0,-9.15128 4.47759,-14.21717 4.51028,-5.06589 11.86399,-5.06589 7.38639,0 11.8313,5.06589 4.44491,5.0332 4.44491,14.21717 z m -6.34053,0 q 0,-7.09225 -2.58197,-10.52398 -2.58197,-3.46441 -7.35371,-3.46441 -4.80442,0 -7.41908,3.46441 -2.58197,3.43173 -2.58197,10.52398 0,6.863463 2.58197,10.425927 2.61466,3.529781 7.41908,3.529781 4.73906,0 7.32103,-3.464415 2.61465,-3.497098 2.61465,-10.491293 z"
         style="font-style:normal;font-variant:normal;font-weight:normal;font-stretch:normal;font-size:66.93510437px;line-height:125%;font-family:Tahoma;-inkscape-font-specification:Tahoma;text-align:justify;letter-spacing:0.80000001px;writing-mode:lr-tb;text-anchor:start"
         id="path3499" /><path
         d="m 628.33188,-113.50677 -13.75961,36.507081 -5.52346,0 -13.66156,-36.507081 6.63468,0 10.00105,28.172876 9.903,-28.172876 6.4059,0 z"
         style="font-style:normal;font-variant:normal;font-weight:normal;font-stretch:normal;font-size:66.93510437px;line-height:125%;font-family:Tahoma;-inkscape-font-specification:Tahoma;text-align:justify;letter-spacing:0.80000001px;writing-mode:lr-tb;text-anchor:start"
         id="path3501" /><path
         d="m 663.35114,-95.23689 q 0,9.21665 -4.4449,14.249856 -4.44491,5.000523 -11.83131,5.000523 -7.61517,0 -11.99472,-5.163939 -4.34686,-5.196622 -4.34686,-14.08644 0,-9.15128 4.4776,-14.21717 4.51027,-5.06589 11.86398,-5.06589 7.3864,0 11.83131,5.06589 4.4449,5.0332 4.4449,14.21717 z m -6.34053,0 q 0,-7.09225 -2.58197,-10.52398 -2.58197,-3.46441 -7.35371,-3.46441 -4.80442,0 -7.41907,3.46441 -2.58197,3.43173 -2.58197,10.52398 0,6.863463 2.58197,10.425927 2.61465,3.529781 7.41907,3.529781 4.73906,0 7.32103,-3.464415 2.61465,-3.497098 2.61465,-10.491293 z"
         style="font-style:normal;font-variant:normal;font-weight:normal;font-stretch:normal;font-size:66.93510437px;line-height:125%;font-family:Tahoma;-inkscape-font-specification:Tahoma;text-align:justify;letter-spacing:0.80000001px;writing-mode:lr-tb;text-anchor:start"
         id="path3503" /><path
         d="m 676.73417,-76.999689 -6.14444,0 0,-50.854991 6.14444,0 0,50.854991 z m 15.58986,-50.854991 -7.84396,16.50499 -4.15076,0 4.64101,-16.50499 7.35371,0 z"
         style="font-style:normal;font-variant:normal;font-weight:normal;font-stretch:normal;font-size:66.93510437px;line-height:125%;font-family:Tahoma;-inkscape-font-specification:Tahoma;text-align:justify;letter-spacing:0.80000001px;writing-mode:lr-tb;text-anchor:start"
         id="path3505" /><path
         d="m 724.14035,-76.999689 -6.14444,0 0,-20.786487 q 0,-2.516604 -0.26146,-4.673694 -0.22878,-2.18977 -0.91513,-3.4971 -0.75171,-1.37269 -2.09172,-2.02635 -1.34001,-0.68635 -3.66052,-0.68635 -2.28782,0 -4.73905,1.24196 -2.41856,1.20928 -4.73906,3.17027 l 0,27.257751 -6.14443,0 0,-36.507081 6.14443,0 0,4.05271 q 2.74538,-2.45124 5.4254,-3.75857 2.68002,-1.30732 5.65419,-1.30732 5.39272,0 8.43225,3.56246 3.03954,3.52978 3.03954,10.26251 l 0,23.695291 z"
         style="font-style:normal;font-variant:normal;font-weight:normal;font-stretch:normal;font-size:66.93510437px;line-height:125%;font-family:Tahoma;-inkscape-font-specification:Tahoma;text-align:justify;letter-spacing:0.80000001px;writing-mode:lr-tb;text-anchor:start"
         id="path3507" /><path
         d="m 739.90922,-76.999689 -6.14444,0 0,-36.507081 6.14444,0 0,36.507081 z m 6.99419,-54.776971 -8.9225,12.2235 -4.86979,0 5.85028,-12.2235 7.94201,0 z"
         style="font-style:normal;font-variant:normal;font-weight:normal;font-stretch:normal;font-size:66.93510437px;line-height:125%;font-family:Tahoma;-inkscape-font-specification:Tahoma;text-align:justify;letter-spacing:0.80000001px;writing-mode:lr-tb;text-anchor:start"
         id="path3509" /><path
         d="m 779.99436,-76.999689 -8.07274,0 -13.62888,-17.616221 -2.41855,2.353187 0,15.263034 -6.14444,0 0,-50.854991 6.14444,0 0,29.774355 14.44595,-15.426445 7.64786,0 -15.00157,15.263029 17.02793,21.244052 z"
         style="font-style:normal;font-variant:normal;font-weight:normal;font-stretch:normal;font-size:66.93510437px;line-height:125%;font-family:Tahoma;-inkscape-font-specification:Tahoma;text-align:justify;letter-spacing:0.80000001px;writing-mode:lr-tb;text-anchor:start"
         id="path3511" /></g><text
       xml:space="preserve"
       style="font-size:60.00173187px;font-style:normal;font-weight:normal;line-height:125%;letter-spacing:0px;word-spacing:0px;fill:#000000;fill-opacity:1;stroke:none;font-family:Sans"
       x="-46.24361"
       y="-149.92215"
       id="text2990"
       sodipodi:linespacing="125%"
       transform="scale(1.0416967,-0.95997229)"><tspan
         sodipodi:role="line"
         id="tspan2992"
         x="-46.24361"
         y="-149.92215"
         style="font-size:125.0036087px;font-style:normal;font-variant:normal;font-weight:normal;font-stretch:normal;letter-spacing:0px;font-family:Amazon;-inkscape-font-specification:Amazon">INEX Slovakia</tspan></text>
</g></svg>