<?xml version="1.0" encoding="UTF-8" standalone="no"?>
<!-- Created with Inkscape (http://www.inkscape.org/) -->

<svg
   xmlns:dc="http://purl.org/dc/elements/1.1/"
   xmlns:cc="http://creativecommons.org/ns#"
   xmlns:rdf="http://www.w3.org/1999/02/22-rdf-syntax-ns#"
   xmlns:svg="http://www.w3.org/2000/svg"
   xmlns="http://www.w3.org/2000/svg"
   xmlns:sodipodi="http://sodipodi.sourceforge.net/DTD/sodipodi-0.dtd"
   xmlns:inkscape="http://www.inkscape.org/namespaces/inkscape"
   version="1.1"
   width="475.46918"
   height="730.11401"
   id="svg2"
   xml:space="preserve"
   inkscape:version="0.48.4 r9939"
   sodipodi:docname="inex_place2.svg"><sodipodi:namedview
     pagecolor="#ffffff"
     bordercolor="#666666"
     borderopacity="1"
     objecttolerance="10"
     gridtolerance="10"
     guidetolerance="10"
     inkscape:pageopacity="0"
     inkscape:pageshadow="2"
     inkscape:window-width="1280"
     inkscape:window-height="928"
     id="namedview8"
     showgrid="false"
     fit-margin-top="0"
     fit-margin-left="0"
     fit-margin-right="0"
     fit-margin-bottom="0"
     inkscape:zoom="0.30451618"
     inkscape:cx="-417.15393"
     inkscape:cy="627.5171"
     inkscape:window-x="1366"
     inkscape:window-y="27"
     inkscape:window-maximized="1"
     inkscape:current-layer="svg2" /><metadata
     id="metadata8"><rdf:RDF><cc:Work
         rdf:about=""><dc:format>image/svg+xml</dc:format><dc:type
           rdf:resource="http://purl.org/dc/dcmitype/StillImage" /><dc:title></dc:title></cc:Work></rdf:RDF></metadata><defs
     id="defs6" /><g
     id="g2986"
     transform="matrix(0.70632355,0,0,0.71690536,6.7925582,394.92109)"><title
       id="title2988">Layer 1</title><g
       id="layer1"><path
         id="text2160"
         d="m 629.76184,61.296108 15.82404,13.315731 c -1.39276,3.23838 -4.93732,6.838905 -10.5918,10.875282 -2.82733,1.208038 -4.26184,2.441139 -4.26184,3.649178 0,0.386467 0.71728,1.402016 2.10992,3.020851 -90.8504,52.44199 -167.90252,101.64485 -231.32437,147.61005 85.23834,64.54887 137.30942,101.50022 156.34043,110.73164 -3.54456,11.30969 -11.26655,19.98575 -23.25043,26.02737 -4.22003,2.03043 -9.49457,4.42289 -15.86646,7.24976 -11.22473,5.29239 -16.83667,8.09564 -16.83667,8.53073 l 0,0.55609 3.16465,6.64569 c -2.86908,0.79728 -5.35895,2.22357 -7.42652,4.22891 -7.76446,5.26798 -16.24567,8.91718 -25.36038,10.92319 -2.82724,0 -6.32925,-1.20804 -10.63361,-3.6492 -2.78479,-1.16006 -6.2875,-2.61001 -10.5068,-4.22885 -4.26184,-1.61883 -6.28742,-2.44113 -6.28742,-2.44113 -0.75979,-0.38648 -1.43457,-0.60401 -2.15185,-0.60401 0,0 -1.09717,0.43509 -3.20719,1.23233 -14.76925,10.51246 -28.14581,17.15815 -40.12963,19.98575 -2.10996,0 -4.93723,-0.60403 -8.43927,-1.83636 -22.53312,-13.26779 -46.45899,-30.6435 -71.81937,-52.0069 -21.09854,-18.14938 -36.92249,-31.10217 -47.55609,-38.76343 l -10.50681,8.45847 -72.91647,54.49597 c -9.1566,6.86325 -35.19241,27.453 -78.19116,61.69772 l -13.756448,0 -20.128212,-12.66299 c 1.434532,-3.23843 2.194321,-4.85724 2.194321,-4.85724 1.392693,-2.41684 2.067497,-3.60052 2.067497,-3.60052 0,-2.41681 -2.109962,-3.64917 -6.329323,-3.64917 -4.219299,0 -10.549263,1.25671 -18.988571,3.64917 -0.759785,0 -2.827255,0.57965 -6.329323,1.81277 -7.764515,-2.44116 -19.031061,-10.51245 -33.842167,-24.19101 -4.219987,-3.60049 -6.287458,-6.06601 -6.287458,-7.27405 0,-0.79724 1.772593,-2.63434 5.274627,-5.46194 4.937249,-4.4708 7.384618,-8.07209 7.384618,-10.87534 0,-0.79724 -3.502037,-5.50992 -10.549278,-13.91971 -3.502034,-6.06601 -5.232134,-9.06253 -5.232134,-9.06253 L 57.14849,328.77331 172.30458,252.5755 c 2.82732,-2.46477 5.65454,-4.47081 8.43932,-6.06603 C 135.00222,200.93147 97.699878,155.76353 68.794948,110.95843 62.465614,100.05954 58.625522,92.398311 57.190986,87.976207 67.064815,79.106921 80.062145,70.189723 96.307819,61.320441 c 7.047211,3.238407 12.279361,5.678814 15.823931,7.274052 2.78475,2.827606 5.612,4.228859 8.43928,4.228859 7.04721,0 11.60395,-2.99649 13.71393,-9.0625 2.15183,-11.309669 10.9292,-17.158127 26.45754,-17.545315 4.93725,0 11.60394,2.610054 20.04393,7.830124 44.43327,41.5667 87.05278,78.469379 127.81535,110.756029 91.65207,-57.68568 167.26959,-102.248876 227.18948,-133.738251 11.98377,-6.041672 18.60865,-9.062498 20.0857,-9.062498 3.50207,0 14.09387,5.026854 31.73217,15.104176 l 6.2876,4.857224 c 0,0.79723 -1.05469,2.199242 -3.16479,4.253197 -1.39258,0.797264 -2.06745,1.595226 -2.06745,2.39249 0,1.208038 6.28742,4.446419 18.9043,9.715199 l 15.90814,-2.416832 6.28491,5.389709 z"
         inkscape:connector-curvature="0"
         style="fill:#7f0000" /></g></g><path
     style="fill:#2185d0;fill-opacity:1;stroke:#000000;stroke-width:10;stroke-linecap:butt;stroke-linejoin:miter;stroke-miterlimit:4;stroke-opacity:1;stroke-dasharray:none"
     d="m 72.916743,440.19052 c -20.440452,2.55282 -28.233765,12.77876 -24.629232,19.70339 L 133.66885,572.3674 9.7017082,658.56972 c -4.50173,7.37845 -7.32622,16.97056 -1.64195,29.55508 6.6241998,9.8553 20.5499298,6.55933 35.4598398,9.63541 9.413525,1.12112 -11.24969,2.54506 -3.23555,-0.18212 -0.85879,4.10487 9.211924,20.98112 12.431305,25.08599 3.961511,4.99662 18.464791,0.78203 25.127237,0.76262 l 116.57837,-91.12816 90.30719,69.78283 c 13.87738,-4.24889 24.70176,-10.5331 33.65995,-18.06144 5.30542,9.72232 12.90459,8.74043 19.70339,11.49364 9.03655,-1.59619 15.30034,-6.36125 20.52436,-12.31462 l 8.20974,1.64195 c 2.24669,-2.02456 -2.60501,-5.38008 -9.03072,-9.03072 25.80114,1.36231 23.68775,-9.23874 35.30191,-13.95656 l 4.10487,-14.77754 -113.29448,-81.27647 171.58366,-104.26375 -8.20974,-2.46293 17.24046,-8.20974 -23.80826,-13.13559 c -3.51106,-0.86747 -9.12617,0.36911 -14.77754,1.64195 7.84836,-0.56194 -6.75484,-4.8658 -10.67266,-7.38877 l 18.06143,-13.95657 c -12.27933,-9.63997 -23.56942,-13.34453 -33.65995,-9.85169 L 224.79702,512.43627 120.53326,425.41298 c -6.27442,2.36436 -11.8439,-0.0663 -18.88241,7.38877 l -2.462924,9.03072 c -5.190573,5.13175 -5.335509,6.33911 -7.38877,9.03072 -7.342219,-2.09024 -13.472331,-5.87744 -18.882413,-10.67267 z"
     id="path3002"
     inkscape:connector-curvature="0"
     sodipodi:nodetypes="ccccccccccccccccccccccccccccccccc" /><g
     transform="matrix(1.5625,0,0,-1.5625,-105.78595,876.75781)"
     id="g10"><path
       d="m 122.29622,418.83218 144.41757,-15.853 C 252.78504,338.05805 201.85225,220.99129 199.70608,218.62902 154.32404,308.21888 130.62549,387.79761 122.29622,418.83218 z"
       id="path12"
       style="fill:#fff200;fill-opacity:1;fill-rule:evenodd;stroke:#231f20;stroke-width:20.45453072;stroke-linecap:butt;stroke-linejoin:miter;stroke-miterlimit:22.92558479;stroke-opacity:1;stroke-dasharray:none"
       inkscape:connector-curvature="0" /><path
       d="m 194.1877,552.3976 c 33.0168,0 59.6843,-23.4927 59.6843,-51.4301 0,-28.5721 -26.6675,-51.4301 -59.6843,-51.4301 -32.3822,0 -59.0497,22.858 -59.0497,51.4301 0,27.9374 26.6675,51.4301 59.0497,51.4301 z"
       id="path14"
       style="fill:#f47216;fill-opacity:1;fill-rule:evenodd;stroke:#231f20;stroke-width:17.45829964;stroke-linecap:butt;stroke-linejoin:miter;stroke-miterlimit:22.92558479;stroke-opacity:1;stroke-dasharray:none"
       inkscape:connector-curvature="0" /></g></svg>