<?xml version="1.0" encoding="UTF-8" standalone="no"?>
<svg
   xmlns:dc="http://purl.org/dc/elements/1.1/"
   xmlns:cc="http://creativecommons.org/ns#"
   xmlns:rdf="http://www.w3.org/1999/02/22-rdf-syntax-ns#"
   xmlns:svg="http://www.w3.org/2000/svg"
   xmlns="http://www.w3.org/2000/svg"
   xmlns:sodipodi="http://sodipodi.sourceforge.net/DTD/sodipodi-0.dtd"
   xmlns:inkscape="http://www.inkscape.org/namespaces/inkscape"
   version="1.1"
   width="116.82002"
   height="111.12351"
   id="svg2742"
   inkscape:version="0.91 r13725"
   viewBox="0 0 116.82002 111.12351"
   sodipodi:docname="lodka.svg">
  <metadata
     id="metadata3192">
    <rdf:RDF>
      <cc:Work
         rdf:about="">
        <dc:format>image/svg+xml</dc:format>
        <dc:type
           rdf:resource="http://purl.org/dc/dcmitype/StillImage" />
        <dc:title></dc:title>
      </cc:Work>
    </rdf:RDF>
  </metadata>
  <defs
     id="defs3190" />
  <sodipodi:namedview
     pagecolor="#ffffff"
     bordercolor="#666666"
     borderopacity="1"
     objecttolerance="10"
     gridtolerance="10"
     guidetolerance="10"
     inkscape:pageopacity="0"
     inkscape:pageshadow="2"
     inkscape:window-width="1366"
     inkscape:window-height="671"
     id="namedview3188"
     showgrid="false"
     inkscape:zoom="1.5698816"
     inkscape:cx="130.47543"
     inkscape:cy="2.5250803"
     inkscape:window-x="0"
     inkscape:window-y="27"
     inkscape:window-maximized="1"
     inkscape:current-layer="g6461"
     fit-margin-top="5"
     fit-margin-left="5"
     fit-margin-right="5"
     fit-margin-bottom="5" />
  <text
     x="-411.06879"
     y="634.91571"
     id="text1142" />
  <g
     id="g6950"
     transform="matrix(2.0224703,0,0,2.0224703,1.8637361,-626.9167)">
    <g
       transform="matrix(0.34127544,0,0,0.34127544,-45.932327,443.14542)"
       id="g6461">
      <g
         id="g4805"
         transform="translate(-678.67875,-328.89816)">
        <path
           inkscape:connector-curvature="0"
           id="path2048"
           style="fill:#ffffff;fill-rule:evenodd;stroke:#000000;stroke-width:1.98430002;stroke-linecap:butt;stroke-linejoin:miter;stroke-dasharray:none"
           d="m 889.75214,-53.0765 1.8759,0.0778 1.7981,0.1556 1.7975,0.389 1.7198,0.4667 1.6414,0.5446 1.5632,0.7001 1.5636,0.7774 1.407,0.8558 1.4066,1.0113 1.2509,1.0891 1.1726,1.1669 1.0943,1.1669 0.9377,1.3225 0.8598,1.4003 0.7816,1.3997 0.6255,1.4781 0.4688,1.5559 0.391,1.5559 0.1561,1.6336 0.0784,1.6337 -0.0784,1.7109 -0.1561,1.6337 -0.391,1.6337 -0.4688,1.5559 -0.6255,1.478 -0.7816,1.4003 -0.8598,1.3998 -0.9377,1.3225 -1.0943,1.2447 -1.1726,1.0891 -1.2509,1.0891 -1.4066,0.9335 -1.407,0.9335 -1.5636,0.778 -1.5632,0.6223 -1.6414,0.6219 -1.7198,0.3889 -1.7975,0.3112 -1.7981,0.2334 -1.8759,0.0778 -1.7975,-0.0778 -1.7981,-0.2334 -1.7192,-0.3112 -1.6415,-0.3889 -1.6414,-0.6219 -1.5637,-0.6223 -1.5631,-0.778 -1.407,-0.9335 -1.3287,-0.9335 -1.2504,-1.0891 -1.1727,-1.0891 -1.0943,-1.2447 -0.9381,-1.3225 -0.8599,-1.3998 -0.7816,-1.4003 -0.6249,-1.478 -0.4694,-1.5559 -0.3905,-1.6337 -0.2344,-1.6337 0,-1.7109 0,-1.6337 0.2344,-1.6336 0.3905,-1.5559 0.4694,-1.5559 0.6249,-1.4781 0.7816,-1.3997 0.8599,-1.4003 0.9381,-1.3225 1.0943,-1.1669 1.1727,-1.1669 1.2504,-1.0891 1.3287,-1.0113 1.407,-0.8558 1.5631,-0.7774 1.5637,-0.7001 1.6414,-0.5446 1.6415,-0.4667 1.7192,-0.389 1.7981,-0.1556 1.7975,-0.0778 z" />
        <path
           inkscape:connector-curvature="0"
           id="path2050"
           style="fill:#ffffff;fill-rule:evenodd;stroke:#000000;stroke-width:1.98430002;stroke-linecap:butt;stroke-linejoin:miter;stroke-dasharray:none"
           d="m 875.21354,-43.3528 0.9382,0 0.9377,0.1556 0.9382,0.1556 0.8599,0.2333 0.9377,0.3112 0.782,0.389 0.7816,0.389 0.7816,0.4662 0.7032,0.5446 0.6255,0.5445 0.6254,0.6224 0.5472,0.7001 0.5471,0.6224 0.4689,0.7779 0.391,0.7779 0.3128,0.778 0.2344,0.7779 0.2344,0.8557 0.0783,0.8558 0.0778,0.8557 -0.0778,0.933 -0.0783,0.8557 -0.2344,0.8558 -0.2344,0.7779 -0.3128,0.8557 -0.391,0.7002 -0.4689,0.7779 -0.5471,0.7001 -0.5472,0.6224 -0.6254,0.6223 -0.6255,0.5446 -0.7032,0.5446 -0.7816,0.4667 -0.7816,0.389 -0.782,0.3884 -0.9377,0.2334 -0.8599,0.2334 -0.9382,0.2334 -0.9377,0.0778 -0.9382,0.0778 -0.9376,-0.0778 -0.9382,-0.0778 -0.9377,-0.2334 -0.8599,-0.2334 -0.8599,-0.2334 -0.8598,-0.3884 -0.7816,-0.389 -0.7038,-0.4667 -0.7032,-0.5446 -0.7033,-0.5446 -0.5471,-0.6223 -0.5472,-0.6224 -0.5471,-0.7001 -0.4694,-0.7779 -0.3905,-0.7002 -0.3127,-0.8557 -0.2345,-0.7779 -0.1566,-0.8558 -0.1561,-0.8557 0,-0.933 0,-0.8557 0.1561,-0.8558 0.1566,-0.8557 0.2345,-0.7779 0.3127,-0.778 0.3905,-0.7779 0.4694,-0.7779 0.5471,-0.6224 0.5472,-0.7001 0.5471,-0.6224 0.7033,-0.5445 0.7032,-0.5446 0.7038,-0.4662 0.7816,-0.389 0.8598,-0.389 0.8599,-0.3112 0.8599,-0.2333 0.9377,-0.1556 0.9382,-0.1556 0.9376,0 z" />
        <path
           inkscape:connector-curvature="0"
           id="path2052"
           style="fill:#ffffff;fill-rule:evenodd;stroke:#000000;stroke-width:1.98430002;stroke-linecap:butt;stroke-linejoin:miter;stroke-dasharray:none"
           d="m 904.52524,-43.3528 0.9381,0 0.9382,0.1556 0.9377,0.1556 0.8599,0.2333 0.9382,0.3112 0.7815,0.389 0.7816,0.389 0.7816,0.4662 0.7032,0.5446 0.6255,0.5445 0.6255,0.6224 0.5471,0.7001 0.5472,0.6224 0.4688,0.7779 0.391,0.7779 0.3128,0.778 0.2344,0.7779 0.2344,0.8557 0.0783,0.8558 0.0778,0.8557 -0.0778,0.933 -0.0783,0.8557 -0.2344,0.8558 -0.2344,0.7779 -0.3128,0.8557 -0.391,0.7002 -0.4688,0.7779 -0.5472,0.7001 -0.5471,0.6224 -0.6255,0.6223 -0.6255,0.5446 -0.7032,0.5446 -0.7816,0.4667 -0.7816,0.389 -0.7815,0.3884 -0.9382,0.2334 -0.8599,0.2334 -0.9377,0.2334 -0.9382,0.0778 -0.9381,0.0778 -0.9377,-0.0778 -0.9382,-0.0778 -0.9377,-0.2334 -0.8599,-0.2334 -0.8598,-0.2334 -0.8599,-0.3884 -0.7816,-0.389 -0.7038,-0.4667 -0.7032,-0.5446 -0.7033,-0.5446 -0.5471,-0.6223 -0.5472,-0.6224 -0.5471,-0.7001 -0.4694,-0.7779 -0.3905,-0.7002 -0.3127,-0.8557 -0.2344,-0.7779 -0.1567,-0.8558 -0.1561,-0.8557 0,-0.933 0,-0.8557 0.1561,-0.8558 0.1567,-0.8557 0.2344,-0.7779 0.3127,-0.778 0.3905,-0.7779 0.4694,-0.7779 0.5471,-0.6224 0.5472,-0.7001 0.5471,-0.6224 0.7033,-0.5445 0.7032,-0.5446 0.7038,-0.4662 0.7816,-0.389 0.8599,-0.389 0.8598,-0.3112 0.8599,-0.2333 0.9377,-0.1556 0.9382,-0.1556 0.9377,0 z" />
        <path
           inkscape:connector-curvature="0"
           id="path2054"
           style="fill:#1b1918;fill-rule:evenodd;stroke:#1b1918;stroke-width:1.98430002;stroke-linecap:butt;stroke-linejoin:miter;stroke-dasharray:none"
           d="m 877.51964,-29.9733 0.1561,0 0.1566,0 0.1561,0.0778 0.1567,0 0.1561,0.0778 0.1566,0.0778 0.1561,0.0778 0.0783,0.0778 0.1561,0.0778 0.0783,0.1556 0.1561,0.0778 0.0784,0.1556 0.0783,0.0778 0.0778,0.1555 0.0783,0.1556 0.0783,0.1556 0,0.1556 0.0783,0.1556 0,0.1556 0,0.1556 0,0.1556 0,0.1555 -0.0783,0.1556 0,0.1556 -0.0783,0.1556 -0.0783,0.1556 -0.0778,0.1556 -0.0783,0.0778 -0.0784,0.1556 -0.1561,0.0778 -0.0783,0.155 -0.1561,0.0778 -0.0783,0.0778 -0.1561,0.0778 -0.1566,0.0778 -0.1561,0.0778 -0.1567,0 -0.1561,0 -0.1566,0.0778 -0.1561,0 -0.1561,0 -0.1566,-0.0778 -0.1561,0 -0.1567,0 -0.1561,-0.0778 -0.1566,-0.0778 -0.1561,-0.0778 -0.0783,-0.0778 -0.1561,-0.0778 -0.0783,-0.155 -0.1561,-0.0778 -0.0783,-0.1556 -0.0784,-0.0778 -0.0777,-0.1556 -0.0784,-0.1556 -0.0783,-0.1556 0,-0.1556 -0.0783,-0.1556 0,-0.1555 0,-0.1556 0,-0.1556 0,-0.1556 0.0783,-0.1556 0,-0.1556 0.0783,-0.1556 0.0784,-0.1556 0.0777,-0.1555 0.0784,-0.0778 0.0783,-0.1556 0.1561,-0.0778 0.0783,-0.1556 0.1561,-0.0778 0.0783,-0.0778 0.1561,-0.0778 0.1566,-0.0778 0.1561,-0.0778 0.1567,0 0.1561,-0.0778 0.1566,0 0.1561,0 z" />
        <path
           inkscape:connector-curvature="0"
           id="path2056"
           style="fill:#1b1918;fill-rule:evenodd;stroke:#1b1918;stroke-width:1.98430002;stroke-linecap:butt;stroke-linejoin:miter;stroke-dasharray:none"
           d="m 906.83124,-29.9733 0.2344,0 0.1567,0 0.1561,0.0778 0.1566,0 0.1561,0.0778 0.0783,0.0778 0.1561,0.0778 0.1566,0.0778 0.0778,0.0778 0.1567,0.1556 0.0777,0.0778 0.0784,0.1556 0.1566,0.0778 0.0778,0.1555 0,0.1556 0.0783,0.1556 0.0783,0.1556 0,0.1556 0,0.1556 0,0.1556 0,0.1556 0,0.1555 0,0.1556 -0.0783,0.1556 -0.0783,0.1556 0,0.1556 -0.0778,0.1556 -0.1566,0.0778 -0.0784,0.1556 -0.0777,0.0778 -0.1567,0.155 -0.0778,0.0778 -0.1566,0.0778 -0.1561,0.0778 -0.0783,0.0778 -0.1561,0.0778 -0.1566,0 -0.1561,0 -0.1567,0.0778 -0.2344,0 -0.1561,0 -0.1566,-0.0778 -0.1561,0 -0.1566,0 -0.1562,-0.0778 -0.0783,-0.0778 -0.1561,-0.0778 -0.1566,-0.0778 -0.0778,-0.0778 -0.1566,-0.155 -0.0778,-0.0778 -0.0783,-0.1556 -0.0783,-0.0778 -0.0783,-0.1556 -0.0778,-0.1556 -0.0783,-0.1556 -0.0784,-0.1556 0,-0.1556 0,-0.1555 0,-0.1556 0,-0.1556 0,-0.1556 0,-0.1556 0.0784,-0.1556 0.0783,-0.1556 0.0778,-0.1556 0.0783,-0.1555 0.0783,-0.0778 0.0783,-0.1556 0.0778,-0.0778 0.1566,-0.1556 0.0778,-0.0778 0.1566,-0.0778 0.1561,-0.0778 0.0783,-0.0778 0.1562,-0.0778 0.1566,0 0.1561,-0.0778 0.1566,0 0.1561,0 z" />
        <path
           inkscape:connector-curvature="0"
           id="path2058"
           style="fill:#1b1918;fill-rule:evenodd;stroke:#1b1918;stroke-width:1.98430002;stroke-linecap:butt;stroke-linejoin:miter;stroke-dasharray:none"
           d="m 886.99864,-15.9663 c -1.7439,-0.2435 -3.0289,-1.1999 -3.189,-2.6574 -0.184,-1.6742 1.385,-2.5515 2.3125,-1.4664 0.631,0.7381 1.6943,1.4632 2.9089,1.6999 2.075,0.4042 1.9794,2.9841 -2.0324,2.4239 z" />
        <path
           inkscape:connector-curvature="0"
           id="path2060"
           style="fill:#ffffff;fill-rule:evenodd;stroke:#1b1918;stroke-width:1.98430002;stroke-linecap:butt;stroke-linejoin:miter;stroke-dasharray:none"
           d="m 969.73624,33.4977 c -48.4458,21.3852 -98.1292,24.7037 -149.171,8.1791 43.4277,-19.5636 94.3183,-24.9673 149.171,-8.1791 z" />
        <path
           inkscape:connector-curvature="0"
           id="path2062"
           style="fill:#ffffff;fill-rule:evenodd;stroke:#000000;stroke-width:1.98430002;stroke-linecap:butt;stroke-linejoin:miter;stroke-dasharray:none"
           d="m 868.17894,-4.4581 40.7234,4.2782 -0.5471,2.645 -0.4688,2.6449 -0.3906,2.5667 -0.3127,2.5672 -0.2344,2.4894 -0.0783,2.4889 -0.0783,2.4894 0,2.4894 0,2.4116 0.1566,2.4111 0.1561,2.4116 0.2344,2.4116 0.3127,2.4116 0.3911,2.3333 0.3905,2.4116 0.4688,2.3338 0.4694,2.4116 0.5471,2.3333 0.625,2.4116 0.6255,2.3338 -42.2088,0 -0.9377,-2.4894 -0.9382,-2.4894 -0.7815,-2.4889 -0.6255,-2.4116 -0.6255,-2.4894 -0.4688,-2.4894 -0.4688,-2.4889 -0.2345,-2.4894 -0.2349,-2.5671 -0.0778,-2.5667 0,-2.5672 0.0778,-2.645 0.1566,-2.645 0.3128,-2.8 0.3905,-2.7228 0.5471,-2.8784 0.6255,-2.8778 0.7038,-2.9562 0.8593,-3.1117 0.9382,-3.1113 z" />
        <path
           inkscape:connector-curvature="0"
           id="path2064"
           style="fill:#ffffff;fill-rule:evenodd;stroke:#1b1918;stroke-width:1.98430002;stroke-linecap:butt;stroke-linejoin:miter;stroke-dasharray:none"
           d="m 820.56524,41.6768 c 49.2367,4.5768 98.8954,2.8239 149.171,-8.1791 -0.8113,6.0367 -5.3555,24.9908 -8.7633,36.2217 -43.9954,8.3086 -82.9111,7.3998 -127.9443,7.4001 -7.3366,-6.6858 -12.3996,-23.5632 -12.4634,-35.4427 z" />
        <path
           inkscape:connector-curvature="0"
           id="path2066"
           style="fill:#ffffff;fill-rule:evenodd;stroke:#1b1918;stroke-width:1.98430002;stroke-linecap:butt;stroke-linejoin:miter;stroke-dasharray:none"
           d="M 895.89284,28.9362 868.17914,-4.4582" />
        <path
           inkscape:connector-curvature="0"
           id="path2068"
           style="fill:#ffffff;fill-rule:evenodd;stroke:#1b1918;stroke-width:1.98430002;stroke-linecap:butt;stroke-linejoin:miter;stroke-dasharray:none"
           d="m 934.69774,-2.6477 -20.3063,13.669 -5.7625,-9.8788" />
        <path
           inkscape:connector-curvature="0"
           id="path2070"
           style="fill:#ffffff;fill-rule:evenodd;stroke:#1b1918;stroke-width:1.98430002;stroke-linecap:butt;stroke-linejoin:miter;stroke-dasharray:none"
           d="m 925.54284,-2.2591 a 3.9922,3.1158 0 0 1 3.9922,3.1159 3.9922,3.1158 0 1 1 -3.9922,-3.1159 z" />
        <path
           inkscape:connector-curvature="0"
           id="path2072"
           style="fill:#ffffff;fill-rule:evenodd;stroke:#1b1918;stroke-width:1.98430002;stroke-linecap:butt;stroke-linejoin:miter;stroke-dasharray:none"
           d="m 943.02834,-18.5896 -77.5675,83.9934" />
        <path
           inkscape:connector-curvature="0"
           id="path2074"
           style="fill:#ffffff;fill-rule:evenodd;stroke:#1b1918;stroke-width:1.98430002;stroke-linecap:butt;stroke-linejoin:miter;stroke-dasharray:none"
           d="m 856.45754,65.5114 c 1.3068,-0.4786 8.4994,-3.6151 9.1348,-2.3781 0.3024,0.5888 2.1885,1.8055 2.3203,2.4273 0.3964,1.8661 -0.5066,4.2101 -1.3871,6.4617 -2.9925,7.6492 -9.6952,24.6528 -15.3548,17.8581 l -8.9962,-10.7997 c -3.2282,-3.8758 10.9707,-12.356 14.283,-13.5693 z" />
        <path
           inkscape:connector-curvature="0"
           id="path2076"
           style="fill:#ffffff;fill-rule:evenodd;stroke:#1b1918;stroke-width:1.98430002;stroke-linecap:butt;stroke-linejoin:miter;stroke-dasharray:none"
           d="m 895.78824,34.6204 c -0.6331,-0.238 -2.241,-0.6387 -3.2134,-2.0769 -3.6179,-5.3494 2.9577,-11.7005 7.7205,-9.9097 2.0403,0.7672 4.4388,1.9315 3.1945,5.2408 -1.2443,3.3092 -5.661,7.5131 -7.7016,6.7458 z" />
        <path
           inkscape:connector-curvature="0"
           id="path2078"
           style="fill:#ffffff;fill-rule:evenodd;stroke:#1b1918;stroke-width:1.98430002;stroke-linecap:butt;stroke-linejoin:miter;stroke-dasharray:none"
           d="m 928.30984,1.5146 c -0.6331,-0.2381 -2.241,-0.6387 -3.2134,-2.077 -3.6179,-5.3493 2.9577,-11.7004 7.7205,-9.9096 2.0403,0.7672 4.4388,1.9315 3.1945,5.2407 -1.2443,3.3093 -5.661,7.5132 -7.7016,6.7459 z" />
        <path
           inkscape:connector-curvature="0"
           id="path2080"
           style="fill:#ffffff;fill-rule:evenodd;stroke:#1b1918;stroke-width:2.83459997;stroke-linecap:butt;stroke-linejoin:miter;stroke-dasharray:none"
           d="m 934.15864,57.4003 c 12.0155,-1.7623 18.534,-1.6463 28.7353,-5.7424" />
        <path
           inkscape:connector-curvature="0"
           id="path2082"
           style="fill:#ffffff;fill-rule:evenodd;stroke:#1b1918;stroke-width:2.83459997;stroke-linecap:butt;stroke-linejoin:miter;stroke-dasharray:none"
           d="m 926.19014,46.7015 c 12.0155,-1.7623 27.7943,-2.2402 37.9956,-6.3363" />
        <path
           inkscape:connector-curvature="0"
           id="path2084"
           style="fill:#ffffff;fill-rule:evenodd;stroke:#1b1918;stroke-width:2.83459997;stroke-linecap:butt;stroke-linejoin:miter;stroke-dasharray:none"
           d="m 930.32414,52.4697 c 12.0155,-1.7623 23.6135,-2.3374 33.8148,-6.4335" />
      </g>
    </g>
  </g>
</svg>
