<?xml version="1.0" encoding="UTF-8" standalone="no"?>
<svg
   xmlns:osb="http://www.openswatchbook.org/uri/2009/osb"
   xmlns:dc="http://purl.org/dc/elements/1.1/"
   xmlns:cc="http://creativecommons.org/ns#"
   xmlns:rdf="http://www.w3.org/1999/02/22-rdf-syntax-ns#"
   xmlns:svg="http://www.w3.org/2000/svg"
   xmlns="http://www.w3.org/2000/svg"
   xmlns:sodipodi="http://sodipodi.sourceforge.net/DTD/sodipodi-0.dtd"
   xmlns:inkscape="http://www.inkscape.org/namespaces/inkscape"
   version="1.1"
   width="250"
   height="111.12351"
   id="svg2742"
   inkscape:version="0.91 r13725"
   viewBox="0 0 250 111.12351"
   sodipodi:docname="lodka_tired2.svg">
  <metadata
     id="metadata3192">
    <rdf:RDF>
      <cc:Work
         rdf:about="">
        <dc:format>image/svg+xml</dc:format>
        <dc:type
           rdf:resource="http://purl.org/dc/dcmitype/StillImage" />
        <dc:title />
      </cc:Work>
    </rdf:RDF>
  </metadata>
  <defs
     id="defs3190">
    <linearGradient
       id="linearGradient4159"
       osb:paint="solid">
      <stop
         style="stop-color:#000000;stop-opacity:1;"
         offset="0"
         id="stop4161" />
    </linearGradient>
  </defs>
  <sodipodi:namedview
     pagecolor="#ffffff"
     bordercolor="#666666"
     borderopacity="1"
     objecttolerance="10"
     gridtolerance="10"
     guidetolerance="10"
     inkscape:pageopacity="0"
     inkscape:pageshadow="2"
     inkscape:window-width="1920"
     inkscape:window-height="983"
     id="namedview3188"
     showgrid="false"
     inkscape:zoom="3.1397632"
     inkscape:cx="135.24911"
     inkscape:cy="56.237624"
     inkscape:window-x="1366"
     inkscape:window-y="27"
     inkscape:window-maximized="1"
     inkscape:current-layer="g6461"
     fit-margin-top="5"
     fit-margin-left="5"
     fit-margin-right="5"
     fit-margin-bottom="5" />
  <text
     x="-411.06879"
     y="634.91571"
     id="text1142" />
  <g
     id="g6950"
     transform="matrix(2.0224703,0,0,2.0224703,1.8637361,-626.9167)">
    <g
       transform="matrix(0.34127544,0,0,0.34127544,-45.932327,443.14542)"
       id="g6461">
      <g
         id="g4805"
         transform="translate(-678.67875,-328.89816)">
        <path
           inkscape:connector-curvature="0"
           id="path2048"
           style="fill:#ffffff;fill-rule:evenodd;stroke:#000000;stroke-width:1.98430002;stroke-linecap:butt;stroke-linejoin:miter;stroke-dasharray:none"
           d="m 889.75214,-53.0765 1.8759,0.0778 1.7981,0.1556 1.7975,0.389 1.7198,0.4667 1.6414,0.5446 1.5632,0.7001 1.5636,0.7774 1.407,0.8558 1.4066,1.0113 1.2509,1.0891 1.1726,1.1669 1.0943,1.1669 0.9377,1.3225 0.8598,1.4003 0.7816,1.3997 0.6255,1.4781 0.4688,1.5559 0.391,1.5559 0.1561,1.6336 0.0784,1.6337 -0.0784,1.7109 -0.1561,1.6337 -0.391,1.6337 -0.4688,1.5559 -0.6255,1.478 -0.7816,1.4003 -0.8598,1.3998 -0.9377,1.3225 -1.0943,1.2447 -1.1726,1.0891 -1.2509,1.0891 -1.4066,0.9335 -1.407,0.9335 -1.5636,0.778 -1.5632,0.6223 -1.6414,0.6219 -1.7198,0.3889 -1.7975,0.3112 -1.7981,0.2334 -1.8759,0.0778 -1.7975,-0.0778 -1.7981,-0.2334 -1.7192,-0.3112 -1.6415,-0.3889 -1.6414,-0.6219 -1.5637,-0.6223 -1.5631,-0.778 -1.407,-0.9335 -1.3287,-0.9335 -1.2504,-1.0891 -1.1727,-1.0891 -1.0943,-1.2447 -0.9381,-1.3225 -0.8599,-1.3998 -0.7816,-1.4003 -0.6249,-1.478 -0.4694,-1.5559 -0.3905,-1.6337 -0.2344,-1.6337 0,-1.7109 0,-1.6337 0.2344,-1.6336 0.3905,-1.5559 0.4694,-1.5559 0.6249,-1.4781 0.7816,-1.3997 0.8599,-1.4003 0.9381,-1.3225 1.0943,-1.1669 1.1727,-1.1669 1.2504,-1.0891 1.3287,-1.0113 1.407,-0.8558 1.5631,-0.7774 1.5637,-0.7001 1.6414,-0.5446 1.6415,-0.4667 1.7192,-0.389 1.7981,-0.1556 1.7975,-0.0778 z" />
        <path
           inkscape:connector-curvature="0"
           id="path2050"
           style="fill:#ffffff;fill-rule:evenodd;stroke:#000000;stroke-width:1.98430002;stroke-linecap:butt;stroke-linejoin:miter;stroke-dasharray:none"
           d="m 875.21354,-43.3528 0.9382,0 0.9377,0.1556 0.9382,0.1556 0.8599,0.2333 0.9377,0.3112 0.782,0.389 0.7816,0.389 0.7816,0.4662 0.7032,0.5446 0.6255,0.5445 0.6254,0.6224 0.5472,0.7001 0.5471,0.6224 0.4689,0.7779 0.391,0.7779 0.3128,0.778 0.2344,0.7779 0.2344,0.8557 0.0783,0.8558 0.0778,0.8557 -0.0778,0.933 -0.0783,0.8557 -0.2344,0.8558 -0.2344,0.7779 -0.3128,0.8557 -0.391,0.7002 -0.4689,0.7779 -0.5471,0.7001 -0.5472,0.6224 -0.6254,0.6223 -0.6255,0.5446 -0.7032,0.5446 -0.7816,0.4667 -0.7816,0.389 -0.782,0.3884 -0.9377,0.2334 -0.8599,0.2334 -0.9382,0.2334 -0.9377,0.0778 -0.9382,0.0778 -0.9376,-0.0778 -0.9382,-0.0778 -0.9377,-0.2334 -0.8599,-0.2334 -0.8599,-0.2334 -0.8598,-0.3884 -0.7816,-0.389 -0.7038,-0.4667 -0.7032,-0.5446 -0.7033,-0.5446 -0.5471,-0.6223 -0.5472,-0.6224 -0.5471,-0.7001 -0.4694,-0.7779 -0.3905,-0.7002 -0.3127,-0.8557 -0.2345,-0.7779 -0.1566,-0.8558 -0.1561,-0.8557 0,-0.933 0,-0.8557 0.1561,-0.8558 0.1566,-0.8557 0.2345,-0.7779 0.3127,-0.778 0.3905,-0.7779 0.4694,-0.7779 0.5471,-0.6224 0.5472,-0.7001 0.5471,-0.6224 0.7033,-0.5445 0.7032,-0.5446 0.7038,-0.4662 0.7816,-0.389 0.8598,-0.389 0.8599,-0.3112 0.8599,-0.2333 0.9377,-0.1556 0.9382,-0.1556 0.9376,0 z" />
        <path
           inkscape:connector-curvature="0"
           id="path2052"
           style="fill:#ffffff;fill-rule:evenodd;stroke:#000000;stroke-width:1.98430002;stroke-linecap:butt;stroke-linejoin:miter;stroke-dasharray:none"
           d="m 904.52524,-43.3528 0.9381,0 0.9382,0.1556 0.9377,0.1556 0.8599,0.2333 0.9382,0.3112 0.7815,0.389 0.7816,0.389 0.7816,0.4662 0.7032,0.5446 0.6255,0.5445 0.6255,0.6224 0.5471,0.7001 0.5472,0.6224 0.4688,0.7779 0.391,0.7779 0.3128,0.778 0.2344,0.7779 0.2344,0.8557 0.0783,0.8558 0.0778,0.8557 -0.0778,0.933 -0.0783,0.8557 -0.2344,0.8558 -0.2344,0.7779 -0.3128,0.8557 -0.391,0.7002 -0.4688,0.7779 -0.5472,0.7001 -0.5471,0.6224 -0.6255,0.6223 -0.6255,0.5446 -0.7032,0.5446 -0.7816,0.4667 -0.7816,0.389 -0.7815,0.3884 -0.9382,0.2334 -0.8599,0.2334 -0.9377,0.2334 -0.9382,0.0778 -0.9381,0.0778 -0.9377,-0.0778 -0.9382,-0.0778 -0.9377,-0.2334 -0.8599,-0.2334 -0.8598,-0.2334 -0.8599,-0.3884 -0.7816,-0.389 -0.7038,-0.4667 -0.7032,-0.5446 -0.7033,-0.5446 -0.5471,-0.6223 -0.5472,-0.6224 -0.5471,-0.7001 -0.4694,-0.7779 -0.3905,-0.7002 -0.3127,-0.8557 -0.2344,-0.7779 -0.1567,-0.8558 -0.1561,-0.8557 0,-0.933 0,-0.8557 0.1561,-0.8558 0.1567,-0.8557 0.2344,-0.7779 0.3127,-0.778 0.3905,-0.7779 0.4694,-0.7779 0.5471,-0.6224 0.5472,-0.7001 0.5471,-0.6224 0.7033,-0.5445 0.7032,-0.5446 0.7038,-0.4662 0.7816,-0.389 0.8599,-0.389 0.8598,-0.3112 0.8599,-0.2333 0.9377,-0.1556 0.9382,-0.1556 0.9377,0 z" />
        <path
           inkscape:connector-curvature="0"
           id="path2054"
           style="fill:#1b1918;fill-rule:evenodd;stroke:#1b1918;stroke-width:1.98430002;stroke-linecap:butt;stroke-linejoin:miter;stroke-dasharray:none"
           d="m 877.51964,-29.9733 0.1561,0 0.1566,0 0.1561,0.0778 0.1567,0 0.1561,0.0778 0.1566,0.0778 0.1561,0.0778 0.0783,0.0778 0.1561,0.0778 0.0783,0.1556 0.1561,0.0778 0.0784,0.1556 0.0783,0.0778 0.0778,0.1555 0.0783,0.1556 0.0783,0.1556 0,0.1556 0.0783,0.1556 0,0.1556 0,0.1556 0,0.1556 0,0.1555 -0.0783,0.1556 0,0.1556 -0.0783,0.1556 -0.0783,0.1556 -0.0778,0.1556 -0.0783,0.0778 -0.0784,0.1556 -0.1561,0.0778 -0.0783,0.155 -0.1561,0.0778 -0.0783,0.0778 -0.1561,0.0778 -0.1566,0.0778 -0.1561,0.0778 -0.1567,0 -0.1561,0 -0.1566,0.0778 -0.1561,0 -0.1561,0 -0.1566,-0.0778 -0.1561,0 -0.1567,0 -0.1561,-0.0778 -0.1566,-0.0778 -0.1561,-0.0778 -0.0783,-0.0778 -0.1561,-0.0778 -0.0783,-0.155 -0.1561,-0.0778 -0.0783,-0.1556 -0.0784,-0.0778 -0.0777,-0.1556 -0.0784,-0.1556 -0.0783,-0.1556 0,-0.1556 -0.0783,-0.1556 0,-0.1555 0,-0.1556 0,-0.1556 0,-0.1556 0.0783,-0.1556 0,-0.1556 0.0783,-0.1556 0.0784,-0.1556 0.0777,-0.1555 0.0784,-0.0778 0.0783,-0.1556 0.1561,-0.0778 0.0783,-0.1556 0.1561,-0.0778 0.0783,-0.0778 0.1561,-0.0778 0.1566,-0.0778 0.1561,-0.0778 0.1567,0 0.1561,-0.0778 0.1566,0 0.1561,0 z" />
        <path
           inkscape:connector-curvature="0"
           id="path2056"
           style="fill:#1b1918;fill-rule:evenodd;stroke:#1b1918;stroke-width:1.98430002;stroke-linecap:butt;stroke-linejoin:miter;stroke-dasharray:none"
           d="m 906.83124,-29.9733 0.2344,0 0.1567,0 0.1561,0.0778 0.1566,0 0.1561,0.0778 0.0783,0.0778 0.1561,0.0778 0.1566,0.0778 0.0778,0.0778 0.1567,0.1556 0.0777,0.0778 0.0784,0.1556 0.1566,0.0778 0.0778,0.1555 0,0.1556 0.0783,0.1556 0.0783,0.1556 0,0.1556 0,0.1556 0,0.1556 0,0.1556 0,0.1555 0,0.1556 -0.0783,0.1556 -0.0783,0.1556 0,0.1556 -0.0778,0.1556 -0.1566,0.0778 -0.0784,0.1556 -0.0777,0.0778 -0.1567,0.155 -0.0778,0.0778 -0.1566,0.0778 -0.1561,0.0778 -0.0783,0.0778 -0.1561,0.0778 -0.1566,0 -0.1561,0 -0.1567,0.0778 -0.2344,0 -0.1561,0 -0.1566,-0.0778 -0.1561,0 -0.1566,0 -0.1562,-0.0778 -0.0783,-0.0778 -0.1561,-0.0778 -0.1566,-0.0778 -0.0778,-0.0778 -0.1566,-0.155 -0.0778,-0.0778 -0.0783,-0.1556 -0.0783,-0.0778 -0.0783,-0.1556 -0.0778,-0.1556 -0.0783,-0.1556 -0.0784,-0.1556 0,-0.1556 0,-0.1555 0,-0.1556 0,-0.1556 0,-0.1556 0,-0.1556 0.0784,-0.1556 0.0783,-0.1556 0.0778,-0.1556 0.0783,-0.1555 0.0783,-0.0778 0.0783,-0.1556 0.0778,-0.0778 0.1566,-0.1556 0.0778,-0.0778 0.1566,-0.0778 0.1561,-0.0778 0.0783,-0.0778 0.1562,-0.0778 0.1566,0 0.1561,-0.0778 0.1566,0 0.1561,0 z" />
        <path
           inkscape:connector-curvature="0"
           id="path2058"
           style="fill:#1b1918;fill-rule:evenodd;stroke:#1b1918;stroke-width:1.98430002;stroke-linecap:butt;stroke-linejoin:miter;stroke-dasharray:none"
           d="m 886.99864,-15.9663 c -1.7439,-0.2435 -3.0289,-1.1999 -3.189,-2.6574 -0.184,-1.6742 1.385,-2.5515 2.3125,-1.4664 0.631,0.7381 1.6943,1.4632 2.9089,1.6999 2.075,0.4042 1.9794,2.9841 -2.0324,2.4239 z" />
        <path
           inkscape:connector-curvature="0"
           id="path2060"
           style="fill:#ffffff;fill-rule:evenodd;stroke:#1b1918;stroke-width:1.98430002;stroke-linecap:butt;stroke-linejoin:miter;stroke-dasharray:none"
           d="m 969.73624,33.4977 c -48.4458,21.3852 -98.1292,24.7037 -149.171,8.1791 43.4277,-19.5636 94.3183,-24.9673 149.171,-8.1791 z" />
        <path
           inkscape:connector-curvature="0"
           id="path2062"
           style="fill:#ffffff;fill-rule:evenodd;stroke:#000000;stroke-width:1.98430002;stroke-linecap:butt;stroke-linejoin:miter;stroke-dasharray:none"
           d="m 868.17894,-4.4581 40.7234,4.2782 -0.5471,2.645 -0.4688,2.6449 -0.3906,2.5667 -0.3127,2.5672 -0.2344,2.4894 -0.0783,2.4889 -0.0783,2.4894 0,2.4894 0,2.4116 0.1566,2.4111 0.1561,2.4116 0.2344,2.4116 0.3127,2.4116 0.3911,2.3333 0.3905,2.4116 0.4688,2.3338 0.4694,2.4116 0.5471,2.3333 0.625,2.4116 0.6255,2.3338 -42.2088,0 -0.9377,-2.4894 -0.9382,-2.4894 -0.7815,-2.4889 -0.6255,-2.4116 -0.6255,-2.4894 -0.4688,-2.4894 -0.4688,-2.4889 -0.2345,-2.4894 -0.2349,-2.5671 -0.0778,-2.5667 0,-2.5672 0.0778,-2.645 0.1566,-2.645 0.3128,-2.8 0.3905,-2.7228 0.5471,-2.8784 0.6255,-2.8778 0.7038,-2.9562 0.8593,-3.1117 0.9382,-3.1113 z" />
        <path
           inkscape:connector-curvature="0"
           id="path2064"
           style="fill:#ffffff;fill-rule:evenodd;stroke:#1b1918;stroke-width:1.98430002;stroke-linecap:butt;stroke-linejoin:miter;stroke-dasharray:none"
           d="m 820.56524,41.6768 c 49.2367,4.5768 98.8954,2.8239 149.171,-8.1791 -0.8113,6.0367 -5.3555,24.9908 -8.7633,36.2217 -43.9954,8.3086 -82.9111,7.3998 -127.9443,7.4001 -7.3366,-6.6858 -12.3996,-23.5632 -12.4634,-35.4427 z" />
        <path
           inkscape:connector-curvature="0"
           id="path2066"
           style="fill:#ffffff;fill-rule:evenodd;stroke:#1b1918;stroke-width:1.98430002;stroke-linecap:butt;stroke-linejoin:miter;stroke-dasharray:none"
           d="M 895.89284,28.9362 868.17914,-4.4582" />
        <path
           inkscape:connector-curvature="0"
           id="path2068"
           style="fill:#ffffff;fill-rule:evenodd;stroke:#1b1918;stroke-width:1.98430002;stroke-linecap:butt;stroke-linejoin:miter;stroke-dasharray:none"
           d="m 934.69774,-2.6477 -20.3063,13.669 -5.7625,-9.8788" />
        <path
           inkscape:connector-curvature="0"
           id="path2070"
           style="fill:#ffffff;fill-rule:evenodd;stroke:#1b1918;stroke-width:1.98430002;stroke-linecap:butt;stroke-linejoin:miter;stroke-dasharray:none"
           d="m 925.54284,-2.2591 a 3.9922,3.1158 0 0 1 3.9922,3.1159 3.9922,3.1158 0 1 1 -3.9922,-3.1159 z" />
        <path
           inkscape:connector-curvature="0"
           id="path2072"
           style="fill:#ffffff;fill-rule:evenodd;stroke:#1b1918;stroke-width:1.98430002;stroke-linecap:butt;stroke-linejoin:miter;stroke-dasharray:none"
           d="m 943.02834,-18.5896 -77.5675,83.9934" />
        <path
           inkscape:connector-curvature="0"
           id="path2074"
           style="fill:#ffffff;fill-rule:evenodd;stroke:#1b1918;stroke-width:1.98430002;stroke-linecap:butt;stroke-linejoin:miter;stroke-dasharray:none"
           d="m 856.45754,65.5114 c 1.3068,-0.4786 8.4994,-3.6151 9.1348,-2.3781 0.3024,0.5888 2.1885,1.8055 2.3203,2.4273 0.3964,1.8661 -0.5066,4.2101 -1.3871,6.4617 -2.9925,7.6492 -9.6952,24.6528 -15.3548,17.8581 l -8.9962,-10.7997 c -3.2282,-3.8758 10.9707,-12.356 14.283,-13.5693 z" />
        <path
           inkscape:connector-curvature="0"
           id="path2076"
           style="fill:#ffffff;fill-rule:evenodd;stroke:#1b1918;stroke-width:1.98430002;stroke-linecap:butt;stroke-linejoin:miter;stroke-dasharray:none"
           d="m 895.78824,34.6204 c -0.6331,-0.238 -2.241,-0.6387 -3.2134,-2.0769 -3.6179,-5.3494 2.9577,-11.7005 7.7205,-9.9097 2.0403,0.7672 4.4388,1.9315 3.1945,5.2408 -1.2443,3.3092 -5.661,7.5131 -7.7016,6.7458 z" />
        <path
           inkscape:connector-curvature="0"
           id="path2078"
           style="fill:#ffffff;fill-rule:evenodd;stroke:#1b1918;stroke-width:1.98430002;stroke-linecap:butt;stroke-linejoin:miter;stroke-dasharray:none"
           d="m 928.30984,1.5146 c -0.6331,-0.2381 -2.241,-0.6387 -3.2134,-2.077 -3.6179,-5.3493 2.9577,-11.7004 7.7205,-9.9096 2.0403,0.7672 4.4388,1.9315 3.1945,5.2407 -1.2443,3.3093 -5.661,7.5132 -7.7016,6.7459 z" />
        <path
           inkscape:connector-curvature="0"
           id="path2080"
           style="fill:#ffffff;fill-rule:evenodd;stroke:#1b1918;stroke-width:2.83459997;stroke-linecap:butt;stroke-linejoin:miter;stroke-dasharray:none"
           d="m 934.15864,57.4003 c 12.0155,-1.7623 18.534,-1.6463 28.7353,-5.7424" />
        <path
           inkscape:connector-curvature="0"
           id="path2082"
           style="fill:#ffffff;fill-rule:evenodd;stroke:#1b1918;stroke-width:2.83459997;stroke-linecap:butt;stroke-linejoin:miter;stroke-dasharray:none"
           d="m 926.19014,46.7015 c 12.0155,-1.7623 27.7943,-2.2402 37.9956,-6.3363" />
        <path
           inkscape:connector-curvature="0"
           id="path2084"
           style="fill:#ffffff;fill-rule:evenodd;stroke:#1b1918;stroke-width:2.83459997;stroke-linecap:butt;stroke-linejoin:miter;stroke-dasharray:none"
           d="m 930.32414,52.4697 c 12.0155,-1.7623 23.6135,-2.3374 33.8148,-6.4335" />
      </g>
      <path
         style="opacity:1;fill:#ffffff;fill-opacity:1;stroke:#000000;stroke-width:2;stroke-linecap:round;stroke-linejoin:round;stroke-miterlimit:4;stroke-dasharray:none;stroke-dashoffset:0;stroke-opacity:1"
         d="m 119.82812,7.453125 c -5.24662,0 -9.46874,3.028533 -9.46874,6.789063 l 0,0.855468 c -10.35866,3.012066 -22.411956,6.658619 -32.408208,11.9375 11.005459,-2.868409 21.605204,-1.361072 32.408208,2.632813 l 0,23.071295 c 0,3.76053 4.22212,6.78711 9.46874,6.78711 l 109.09748,0 c 5.24663,0 9.47071,-3.02658 9.47071,-6.78711 l 0,-38.497076 c 0,-3.76053 -4.22408,-6.789063 -9.47071,-6.789063 z"
         transform="matrix(1.4488146,0,0,1.4488146,131.88998,-390.21177)"
         id="rect4157"
         inkscape:connector-curvature="0"
         sodipodi:nodetypes="sscccsssssss" />
      <g
         style="font-style:normal;font-weight:normal;font-size:54.33054733px;line-height:125%;font-family:Sans;letter-spacing:-4.94045734px;word-spacing:0px;fill:#000000;fill-opacity:1;stroke:none;stroke-width:1px;stroke-linecap:butt;stroke-linejoin:miter;stroke-opacity:1"
         id="text4187">
        <path
           d="m 322.53531,-345.83429 0,-11.61068 -4.42143,0 0,-1.55634 10.59375,0 0,1.55634 -4.42143,0 0,11.61068 -1.75089,0 z"
           style="font-style:normal;font-variant:normal;font-weight:normal;font-stretch:normal;font-size:18.11018181px;font-family:Tahoma;-inkscape-font-specification:Tahoma;text-align:center;letter-spacing:0.72440732px;text-anchor:middle"
           id="path4162" />
        <path
           d="m 336.74508,-355.71177 -5.31456,13.52074 -1.77741,0 1.76857,-4.12077 -3.5902,-9.39997 1.7951,0 2.69707,7.31305 2.68823,-7.31305 1.7332,0 z"
           style="font-style:normal;font-variant:normal;font-weight:normal;font-stretch:normal;font-size:18.11018181px;font-family:Tahoma;-inkscape-font-specification:Tahoma;text-align:center;letter-spacing:0.72440732px;text-anchor:middle"
           id="path4164" />
        <path
           d="m 356.33945,-345.83429 0,-5.71249 q 0,-0.6809 -0.0531,-1.25568 -0.053,-0.58363 -0.22107,-0.91082 -0.17686,-0.35371 -0.50404,-0.52173 -0.32719,-0.16801 -0.88429,-0.16801 -0.51288,0 -1.10536,0.31834 -0.58362,0.3095 -1.21147,0.90197 0.009,0.15033 0.0177,0.36256 0.0177,0.20339 0.0177,0.48636 l 0,6.4995 -1.66245,0 0,-5.71249 q 0,-0.6809 -0.0531,-1.25568 -0.0531,-0.58363 -0.22107,-0.91082 -0.17686,-0.35371 -0.50405,-0.52173 -0.32718,-0.16801 -0.88428,-0.16801 -0.53942,0 -1.13189,0.33603 -0.59247,0.33602 -1.14957,0.85775 l 0,7.37495 -1.66246,0 0,-9.87748 1.66246,0 0,1.09652 q 0.65437,-0.65437 1.29106,-1.00809 0.64553,-0.36256 1.41485,-0.36256 0.87545,0 1.54751,0.39793 0.6809,0.39793 1.03461,1.30875 0.75164,-0.84007 1.46792,-1.27338 0.71627,-0.4333 1.55634,-0.4333 0.63669,0 1.15841,0.20339 0.52173,0.19454 0.91082,0.63669 0.39793,0.45098 0.61016,1.12304 0.22107,0.67206 0.22107,1.68899 l 0,6.4995 -1.66246,0 z"
           style="font-style:normal;font-variant:normal;font-weight:normal;font-stretch:normal;font-size:18.11018181px;font-family:Tahoma;-inkscape-font-specification:Tahoma;text-align:center;letter-spacing:0.72440732px;text-anchor:middle"
           id="path4166" />
        <path
           d="m 362.75866,-345.83429 -1.66246,0 0,-9.87748 1.66246,0 0,9.87748 z m 0.11496,-11.53109 -1.89237,0 0,-1.72436 1.89237,0 0,1.72436 z"
           style="font-style:normal;font-variant:normal;font-weight:normal;font-stretch:normal;font-size:18.11018181px;font-family:Tahoma;-inkscape-font-specification:Tahoma;text-align:center;letter-spacing:0.72440732px;text-anchor:middle"
           id="path4168" />
        <path
           d="m 377.82548,-348.26608 0,-2.74128 q -0.59247,0.053 -1.50328,0.15032 -0.90198,0.0884 -1.45908,0.25645 -0.66321,0.20338 -1.09651,0.62784 -0.4333,0.41562 -0.4333,1.16726 0,0.84891 0.47751,1.28221 0.47752,0.4333 1.39718,0.4333 0.78701,0 1.4237,-0.33602 0.63668,-0.34488 1.19378,-0.84008 z m 0,1.37949 q -0.20338,0.15033 -0.54826,0.42446 -0.33602,0.26528 -0.65437,0.42445 -0.44214,0.22992 -0.85775,0.35372 -0.40678,0.1238 -1.14958,0.1238 -0.61015,0 -1.15841,-0.22992 -0.54826,-0.22991 -0.96387,-0.64552 -0.39793,-0.40678 -0.63669,-0.99925 -0.23876,-0.60131 -0.23876,-1.26453 0,-1.02577 0.4333,-1.74204 0.4333,-0.72512 1.37065,-1.14957 0.83123,-0.38025 1.96311,-0.52173 1.13189,-0.15033 2.44063,-0.22107 l 0,-0.31835 q 0,-0.58363 -0.17685,-0.93734 -0.17686,-0.36256 -0.49521,-0.5571 -0.31834,-0.20339 -0.77817,-0.26529 -0.45983,-0.0707 -0.94618,-0.0707 -0.57479,0 -1.35296,0.17686 -0.77817,0.16801 -1.55634,0.4952 l -0.0973,0 0,-1.68899 q 0.45983,-0.13264 1.31759,-0.29181 0.85776,-0.15917 1.69783,-0.15917 1.01693,0 1.71551,0.15917 0.69859,0.15917 1.25569,0.57478 0.53942,0.40678 0.8047,1.0523 0.26529,0.64553 0.26529,1.57403 l 0,6.75595 -1.65362,0 0,-1.0523 z"
           style="font-style:normal;font-variant:normal;font-weight:normal;font-stretch:normal;font-size:18.11018181px;font-family:Tahoma;-inkscape-font-specification:Tahoma;text-align:center;letter-spacing:0.72440732px;text-anchor:middle"
           id="path4170" />
        <path
           d="m 384.24469,-345.83429 -1.66246,0 0,-13.75949 1.66246,0 0,13.75949 z"
           style="font-style:normal;font-variant:normal;font-weight:normal;font-stretch:normal;font-size:18.11018181px;font-family:Tahoma;-inkscape-font-specification:Tahoma;text-align:center;letter-spacing:0.72440732px;text-anchor:middle"
           id="path4172" />
        <path
           d="m 391.69852,-345.60438 q -2.36104,0 -3.66979,-1.32642 -1.2999,-1.33528 -1.2999,-3.78475 0,-2.4141 1.26453,-3.8378 1.26453,-1.43255 3.30723,-1.43255 0.91966,0 1.62709,0.26529 0.70743,0.26529 1.238,0.83123 0.53057,0.56594 0.81354,1.38833 0.28297,0.81354 0.28297,1.99849 l 0,0.90197 -6.84437,0 q 0,1.72436 0.8666,2.63517 0.8666,0.91082 2.39641,0.91082 0.54826,0 1.06999,-0.1238 0.53057,-0.1238 0.95503,-0.31835 0.45099,-0.20338 0.76049,-0.38908 0.3095,-0.19455 0.51288,-0.36256 l 0.0973,0 0,1.81279 q -0.29181,0.11495 -0.72511,0.29181 -0.4333,0.16801 -0.77817,0.26529 -0.48636,0.13264 -0.88429,0.20338 -0.38909,0.0707 -0.9904,0.0707 z m 1.94543,-6.26958 q -0.0177,-0.67206 -0.15917,-1.15842 -0.14149,-0.48636 -0.40677,-0.82239 -0.29182,-0.3714 -0.75165,-0.56594 -0.45098,-0.19454 -1.12304,-0.19454 -0.66321,0 -1.13189,0.20338 -0.45983,0.19455 -0.84007,0.57479 -0.3714,0.38909 -0.56594,0.8666 -0.19454,0.46867 -0.2476,1.09652 l 5.22613,0 z"
           style="font-style:normal;font-variant:normal;font-weight:normal;font-stretch:normal;font-size:18.11018181px;font-family:Tahoma;-inkscape-font-specification:Tahoma;text-align:center;letter-spacing:0.72440732px;text-anchor:middle"
           id="path4174" />
        <path
           d="m 411.67313,-345.83429 -1.66246,0 0,-1.00809 q -0.38908,0.32719 -0.67205,0.53942 -0.28297,0.21223 -0.66322,0.38908 -0.35371,0.16802 -0.73396,0.25645 -0.38024,0.0973 -0.88428,0.0973 -0.8047,0 -1.49445,-0.33603 -0.6809,-0.33603 -1.15841,-0.98156 -0.48636,-0.65437 -0.75164,-1.6094 -0.26529,-0.96387 -0.26529,-2.21071 0,-1.2999 0.33603,-2.24609 0.33603,-0.95503 0.9285,-1.66246 0.53941,-0.64553 1.2999,-1.00809 0.76933,-0.3714 1.6094,-0.3714 0.7428,0 1.29106,0.16802 0.54826,0.15917 1.15841,0.50404 l 0,-4.27994 1.66246,0 0,13.75949 z m -1.66246,-2.40526 0,-5.6948 q -0.619,-0.30066 -1.1142,-0.41562 -0.48635,-0.11495 -1.06114,-0.11495 -1.28221,0 -2.00733,0.96387 -0.72511,0.95503 -0.72511,2.76781 0,1.74205 0.5571,2.67055 0.5571,0.91966 1.78625,0.91966 0.65438,0 1.31759,-0.29182 0.66322,-0.30065 1.24684,-0.8047 z"
           style="font-style:normal;font-variant:normal;font-weight:normal;font-stretch:normal;font-size:18.11018181px;font-family:Tahoma;-inkscape-font-specification:Tahoma;text-align:center;letter-spacing:0.72440732px;text-anchor:middle"
           id="path4176" />
        <path
           d="m 420.32074,-348.26608 0,-2.74128 q -0.59247,0.053 -1.50328,0.15032 -0.90197,0.0884 -1.45907,0.25645 -0.66322,0.20338 -1.09652,0.62784 -0.4333,0.41562 -0.4333,1.16726 0,0.84891 0.47752,1.28221 0.47751,0.4333 1.39717,0.4333 0.78701,0 1.4237,-0.33602 0.63668,-0.34488 1.19378,-0.84008 z m 0,1.37949 q -0.20338,0.15033 -0.54825,0.42446 -0.33603,0.26528 -0.65437,0.42445 -0.44215,0.22992 -0.85776,0.35372 -0.40677,0.1238 -1.14957,0.1238 -0.61016,0 -1.15842,-0.22992 -0.54826,-0.22991 -0.96387,-0.64552 -0.39793,-0.40678 -0.63669,-0.99925 -0.23875,-0.60131 -0.23875,-1.26453 0,-1.02577 0.4333,-1.74204 0.4333,-0.72512 1.37064,-1.14957 0.83123,-0.38025 1.96311,-0.52173 1.13189,-0.15033 2.44063,-0.22107 l 0,-0.31835 q 0,-0.58363 -0.17685,-0.93734 -0.17686,-0.36256 -0.4952,-0.5571 -0.31835,-0.20339 -0.77817,-0.26529 -0.45983,-0.0707 -0.94619,-0.0707 -0.57479,0 -1.35296,0.17686 -0.77817,0.16801 -1.55634,0.4952 l -0.0973,0 0,-1.68899 q 0.45982,-0.13264 1.31758,-0.29181 0.85776,-0.15917 1.69783,-0.15917 1.01693,0 1.71552,0.15917 0.69858,0.15917 1.25568,0.57478 0.53942,0.40678 0.8047,1.0523 0.26529,0.64553 0.26529,1.57403 l 0,6.75595 -1.65362,0 0,-1.0523 z m 0.6809,-13.76834 -2.4141,3.30723 -1.31758,0 1.58287,-3.30723 2.14881,0 z"
           style="font-style:normal;font-variant:normal;font-weight:normal;font-stretch:normal;font-size:18.11018181px;font-family:Tahoma;-inkscape-font-specification:Tahoma;text-align:center;letter-spacing:0.72440732px;text-anchor:middle"
           id="path4178" />
        <path
           d="m 432.80616,-355.71177 -3.72285,9.87748 -1.49444,0 -3.69632,-9.87748 1.7951,0 2.70592,7.62255 2.67939,-7.62255 1.7332,0 z"
           style="font-style:normal;font-variant:normal;font-weight:normal;font-stretch:normal;font-size:18.11018181px;font-family:Tahoma;-inkscape-font-specification:Tahoma;text-align:center;letter-spacing:0.72440732px;text-anchor:middle"
           id="path4180" />
        <path
           d="m 439.95048,-348.26608 0,-2.74128 q -0.59247,0.053 -1.50328,0.15032 -0.90198,0.0884 -1.45908,0.25645 -0.66321,0.20338 -1.09651,0.62784 -0.4333,0.41562 -0.4333,1.16726 0,0.84891 0.47751,1.28221 0.47752,0.4333 1.39718,0.4333 0.78701,0 1.4237,-0.33602 0.63668,-0.34488 1.19378,-0.84008 z m 0,1.37949 q -0.20338,0.15033 -0.54826,0.42446 -0.33602,0.26528 -0.65437,0.42445 -0.44214,0.22992 -0.85775,0.35372 -0.40678,0.1238 -1.14958,0.1238 -0.61015,0 -1.15841,-0.22992 -0.54826,-0.22991 -0.96387,-0.64552 -0.39793,-0.40678 -0.63669,-0.99925 -0.23876,-0.60131 -0.23876,-1.26453 0,-1.02577 0.4333,-1.74204 0.4333,-0.72512 1.37065,-1.14957 0.83123,-0.38025 1.96311,-0.52173 1.13189,-0.15033 2.44063,-0.22107 l 0,-0.31835 q 0,-0.58363 -0.17685,-0.93734 -0.17686,-0.36256 -0.49521,-0.5571 -0.31834,-0.20339 -0.77817,-0.26529 -0.45983,-0.0707 -0.94618,-0.0707 -0.57479,0 -1.35296,0.17686 -0.77817,0.16801 -1.55634,0.4952 l -0.0973,0 0,-1.68899 q 0.45983,-0.13264 1.31759,-0.29181 0.85776,-0.15917 1.69783,-0.15917 1.01693,0 1.71551,0.15917 0.69859,0.15917 1.25569,0.57478 0.53942,0.40678 0.8047,1.0523 0.26529,0.64553 0.26529,1.57403 l 0,6.75595 -1.65362,0 0,-1.0523 z"
           style="font-style:normal;font-variant:normal;font-weight:normal;font-stretch:normal;font-size:18.11018181px;font-family:Tahoma;-inkscape-font-specification:Tahoma;text-align:center;letter-spacing:0.72440732px;text-anchor:middle"
           id="path4182" />
        <path
           d="m 447.34241,-345.59553 q -0.9904,0 -1.857,-0.26529 -0.85776,-0.26528 -1.4237,-0.56594 l 0,-1.86585 0.0884,0 q 0.21223,0.16802 0.4952,0.3714 0.29182,0.20339 0.76933,0.42446 0.42446,0.19455 0.9285,0.34487 0.51289,0.15033 1.06115,0.15033 0.39793,0 0.84891,-0.0884 0.45099,-0.0973 0.67206,-0.23875 0.3095,-0.20339 0.44214,-0.4333 0.14149,-0.22992 0.14149,-0.68975 0,-0.59247 -0.32719,-0.89313 -0.31834,-0.30065 -1.14073,-0.50404 -0.31834,-0.0796 -0.83123,-0.1857 -0.51288,-0.10611 -0.94618,-0.22991 -1.13189,-0.32719 -1.64477,-1.00809 -0.51289,-0.68974 -0.51289,-1.66246 0,-1.33527 1.00809,-2.17534 1.00808,-0.84007 2.67938,-0.84007 0.82239,0 1.65362,0.20338 0.83123,0.20339 1.39717,0.51289 l 0,1.77741 -0.0884,0 q -0.63668,-0.50404 -1.4237,-0.79585 -0.77817,-0.29182 -1.57403,-0.29182 -0.82238,0 -1.38833,0.34487 -0.56594,0.34487 -0.56594,1.04346 0,0.619 0.33603,0.9285 0.33603,0.30066 1.07883,0.4952 0.3714,0.0973 0.82238,0.19454 0.45983,0.0884 0.96388,0.21223 1.09651,0.27413 1.64477,0.91082 0.5571,0.63668 0.5571,1.7332 0,0.63668 -0.25644,1.21147 -0.24761,0.56594 -0.73396,0.97272 -0.53057,0.44214 -1.20263,0.67205 -0.66322,0.22992 -1.6713,0.22992 z m 3.33376,-15.0594 -2.01618,3.35145 -2.00733,0 -2.01617,-3.35145 1.40602,0 1.63593,2.26378 1.62708,-2.26378 1.37065,0 z"
           style="font-style:normal;font-variant:normal;font-weight:normal;font-stretch:normal;font-size:18.11018181px;font-family:Tahoma;-inkscape-font-specification:Tahoma;text-align:center;letter-spacing:0.72440732px;text-anchor:middle"
           id="path4184" />
        <path
           d="m 361.43223,-323.19656 -7.25999,0 0,-1.22916 5.16423,-7.27768 -4.952,0 0,-1.37064 6.95049,0 0,1.18494 -5.19076,7.30421 5.28803,0 0,1.38833 z"
           style="font-style:normal;font-variant:normal;font-weight:normal;font-stretch:normal;font-size:18.11018181px;font-family:Tahoma;-inkscape-font-specification:Tahoma;text-align:center;letter-spacing:0.72440732px;text-anchor:middle"
           id="path4186" />
        <path
           d="m 369.24861,-325.62835 0,-2.74129 q -0.59247,0.0531 -1.50328,0.15033 -0.90197,0.0884 -1.45907,0.25644 -0.66322,0.20339 -1.09652,0.62785 -0.4333,0.41561 -0.4333,1.16726 0,0.84891 0.47751,1.28221 0.47752,0.4333 1.39718,0.4333 0.78701,0 1.4237,-0.33603 0.63668,-0.34487 1.19378,-0.84007 z m 0,1.37949 q -0.20338,0.15033 -0.54825,0.42445 -0.33603,0.26529 -0.65437,0.42446 -0.44215,0.22992 -0.85776,0.35372 -0.40677,0.1238 -1.14957,0.1238 -0.61016,0 -1.15842,-0.22992 -0.54826,-0.22991 -0.96387,-0.64553 -0.39793,-0.40677 -0.63669,-0.99924 -0.23876,-0.60131 -0.23876,-1.26453 0,-1.02577 0.43331,-1.74204 0.4333,-0.72512 1.37064,-1.14958 0.83123,-0.38024 1.96311,-0.52172 1.13189,-0.15033 2.44063,-0.22108 l 0,-0.31834 q 0,-0.58363 -0.17685,-0.93734 -0.17686,-0.36256 -0.4952,-0.5571 -0.31835,-0.20339 -0.77818,-0.26529 -0.45982,-0.0707 -0.94618,-0.0707 -0.57479,0 -1.35296,0.17686 -0.77817,0.16801 -1.55634,0.4952 l -0.0973,0 0,-1.68899 q 0.45982,-0.13264 1.31758,-0.29182 0.85776,-0.15917 1.69783,-0.15917 1.01693,0 1.71552,0.15917 0.69858,0.15918 1.25568,0.57479 0.53942,0.40677 0.8047,1.0523 0.26529,0.64553 0.26529,1.57403 l 0,6.75595 -1.65362,0 0,-1.0523 z"
           style="font-style:normal;font-variant:normal;font-weight:normal;font-stretch:normal;font-size:18.11018181px;font-family:Tahoma;-inkscape-font-specification:Tahoma;text-align:center;letter-spacing:0.72440732px;text-anchor:middle"
           id="path4188" />
        <path
           d="m 380.54024,-328.16625 q 0,-1.76857 -0.53941,-2.67939 -0.53942,-0.91966 -1.7332,-0.91966 -0.6809,0 -1.37949,0.31835 -0.68974,0.31834 -1.25569,0.8047 l 0,5.65943 q 0.62785,0.3095 1.1142,0.44214 0.48636,0.1238 1.06999,0.1238 1.27337,0 1.99849,-0.90197 0.72511,-0.90197 0.72511,-2.8474 z m 1.71552,-0.13264 q 0,2.42294 -1.1761,3.8997 -1.1761,1.47676 -2.94468,1.47676 -0.8047,0 -1.37948,-0.20339 -0.56595,-0.19454 -1.12305,-0.53057 l -0.10611,0.45983 -1.55634,0 0,-13.7595 1.66245,0 0,4.91664 q 0.62785,-0.56595 1.3618,-0.93735 0.73396,-0.3714 1.66246,-0.3714 1.6713,0 2.63518,1.34412 0.96387,1.33527 0.96387,3.70516 z"
           style="font-style:normal;font-variant:normal;font-weight:normal;font-stretch:normal;font-size:18.11018181px;font-family:Tahoma;-inkscape-font-specification:Tahoma;text-align:center;letter-spacing:0.72440732px;text-anchor:middle"
           id="path4190" />
        <path
           d="m 389.9395,-331.28778 -0.0884,0 q -0.1857,-0.0531 -0.39793,-0.0619 -0.20339,-0.0177 -0.4952,-0.0177 -0.67206,0 -1.33527,0.29182 -0.66322,0.29181 -1.25569,0.8666 l 0,7.01239 -1.66246,0 0,-9.87748 1.66246,0 0,1.46792 q 0.91082,-0.8047 1.58287,-1.13189 0.6809,-0.33603 1.31759,-0.33603 0.25644,0 0.38024,0.0177 0.13265,0.009 0.29182,0.0354 l 0,1.7332 z"
           style="font-style:normal;font-variant:normal;font-weight:normal;font-stretch:normal;font-size:18.11018181px;font-family:Tahoma;-inkscape-font-specification:Tahoma;text-align:center;letter-spacing:0.72440732px;text-anchor:middle"
           id="path4192" />
        <path
           d="m 397.18994,-325.62835 0,-2.74129 q -0.59248,0.0531 -1.50329,0.15033 -0.90197,0.0884 -1.45907,0.25644 -0.66322,0.20339 -1.09652,0.62785 -0.4333,0.41561 -0.4333,1.16726 0,0.84891 0.47752,1.28221 0.47751,0.4333 1.39717,0.4333 0.78701,0 1.4237,-0.33603 0.63669,-0.34487 1.19379,-0.84007 z m 0,1.37949 q -0.20339,0.15033 -0.54826,0.42445 -0.33603,0.26529 -0.65437,0.42446 -0.44215,0.22992 -0.85776,0.35372 -0.40677,0.1238 -1.14957,0.1238 -0.61016,0 -1.15842,-0.22992 -0.54826,-0.22991 -0.96387,-0.64553 -0.39793,-0.40677 -0.63669,-0.99924 -0.23875,-0.60131 -0.23875,-1.26453 0,-1.02577 0.4333,-1.74204 0.4333,-0.72512 1.37064,-1.14958 0.83123,-0.38024 1.96312,-0.52172 1.13188,-0.15033 2.44063,-0.22108 l 0,-0.31834 q 0,-0.58363 -0.17686,-0.93734 -0.17686,-0.36256 -0.4952,-0.5571 -0.31834,-0.20339 -0.77817,-0.26529 -0.45983,-0.0707 -0.94619,-0.0707 -0.57479,0 -1.35296,0.17686 -0.77817,0.16801 -1.55634,0.4952 l -0.0973,0 0,-1.68899 q 0.45983,-0.13264 1.31758,-0.29182 0.85776,-0.15917 1.69783,-0.15917 1.01693,0 1.71552,0.15917 0.69858,0.15918 1.25568,0.57479 0.53942,0.40677 0.80471,1.0523 0.26528,0.64553 0.26528,1.57403 l 0,6.75595 -1.65361,0 0,-1.0523 z"
           style="font-style:normal;font-variant:normal;font-weight:normal;font-stretch:normal;font-size:18.11018181px;font-family:Tahoma;-inkscape-font-specification:Tahoma;text-align:center;letter-spacing:0.72440732px;text-anchor:middle"
           id="path4194" />
        <path
           d="m 404.91789,-323.00202 q -1.3618,0 -2.12228,-0.76933 -0.76049,-0.77817 -0.76049,-2.44947 l 0,-5.47373 -1.12304,0 0,-1.37949 1.12304,0 0,-2.83856 1.66246,0 0,2.83856 2.58211,0 0,1.37949 -2.58211,0 0,4.69556 q 0,0.75164 0.0265,1.15841 0.0265,0.40677 0.20338,0.76049 0.15033,0.3095 0.48636,0.46867 0.33603,0.15033 0.91081,0.15033 0.40678,0 0.78702,-0.11496 0.38024,-0.1238 0.54826,-0.20338 l 0.0973,0 0,1.49444 q -0.46867,0.13264 -0.95503,0.20338 -0.47752,0.0796 -0.88429,0.0796 z m 4.87242,-13.95404 -2.12229,4.46565 -1.12304,0 1.25569,-4.46565 1.98964,0 z"
           style="font-style:normal;font-variant:normal;font-weight:normal;font-stretch:normal;font-size:18.11018181px;font-family:Tahoma;-inkscape-font-specification:Tahoma;text-align:center;letter-spacing:0.72440732px;text-anchor:middle"
           id="path4196" />
        <path
           d="m 413.9369,-336.36358 -0.2476,9.54144 -1.46791,0 -0.26529,-9.54144 1.9808,0 z m -0.0884,13.16702 -1.80395,0 0,-1.86585 1.80395,0 0,1.86585 z"
           style="font-style:normal;font-variant:normal;font-weight:normal;font-stretch:normal;font-size:18.11018181px;font-family:Tahoma;-inkscape-font-specification:Tahoma;text-align:center;letter-spacing:0.72440732px;text-anchor:middle"
           id="path4198" />
      </g>
    </g>
  </g>
</svg>
